<svg xmlns="http://www.w3.org/2000/svg" style="display: none;">
  
    <symbol id="icon-acknowledged" viewBox="0 0 512 512">
      <path d="m474 198c-16-19-42-28-68-28l-54 0 16-58c3-16 0-35-10-48-9-13-25-22-44-22l-26 0c-16 0-35 6-45 22l-38 58c-10 12-23 25-35 35l-16 13-90 0c-32 0-54 22-54 54l0 160c0 32 25 58 57 58l90 0 25 12c26 13 55 20 84 20l128 0c44 0 83-32 86-77l16-128c3-26-6-51-22-71z m-336 196l-74 0c-3 0-10-4-10-10l0-160c0-3 4-10 10-10l74 0z m310-132l-16 128c-3 20-19 36-38 36l-128 0c-23 0-42-7-61-16l-16-10 0-195 9-7c20-12 39-32 52-51l38-54c-3-3 0-3 0-3l22 0c4 0 7 3 7 3 0 0 3 3 0 6l-19 87c-4 6 0 16 3 22 3 3 13 10 19 10l86 0c13 0 23 6 29 12 10 10 13 20 13 32z"/>
    </symbol>
  
    <symbol id="icon-add-channel" viewBox="0 0 512 512">
      <path d="m224 426l-192 0c-10 0-19-7-22-16-4-10 0-20 6-26l58-58 0-262c0-32 22-54 54-54l320 0c32 0 58 25 58 57l0 224c0 13-10 26-26 26-16 0-22-16-22-29l0-224c0-3-4-10-10-10l-320 0c-3 4-6 7-6 10l0 266c0 9-4 19-13 28l-19 20 134 0c13 0 26 9 26 25 0 16-13 23-26 23z m176 80c-13 0-26-10-26-26l0-58-54 0c-13 0-26-9-26-25 0-16 10-26 26-26l58 0 0-51c0-13 9-26 25-26 16 0 26 10 26 26l0 58 51 0c13 0 26 9 26 25 0 16-10 26-26 26l-58 0 0 51c4 13-9 26-22 26z m-19-413c-7-3-16-7-23-3l-92 38-58 0c-13 0-22 10-22 26l0 80c0 12 9 22 22 22l10 0 0 32c0 13 9 26 25 26 16 0 23-13 23-26l0-32 96 38c6 4 16 4 22-3 6-3 10-13 10-19l0-160c0-6-7-16-13-19z m-131 115l-16 0 0-32 16 0z m96 29l-48-19 0-48 48-20z"/>
    </symbol>
  
    <symbol id="icon-add-extension" viewBox="0 0 512 512">
      <path d="m256 506c-22 0-45-10-58-29-12-16-19-32-16-51l-38 0c-32 0-58-26-58-58l0-35c-19 0-38-7-51-16-16-16-25-39-25-61 0-22 9-45 28-58 16-12 32-19 52-16l0-38c0-32 25-58 57-58l35 0c0-19 7-38 16-51 29-35 87-35 116 0 12 16 19 32 16 51l35 0c32 0 57 26 57 58l0 64c0 6-3 13-9 19-7 3-13 7-19 7l-20-4c-9 0-16 0-22 7-6 6-10 13-10 22 0 13-9 26-25 26-16 0-19-16-19-29 0-22 9-45 28-58 16-12 32-19 52-19l0-35c0-3-4-10-10-10l-64 0c-6 4-13-3-19-6-3-6-7-13-3-19l3-16c3-10 0-16-7-23-9-12-32-12-44 0-7 4-7 13-7 20l3 16c0 6 0 12-6 19-6 6-10 13-16 13l-64 0c-3 0-10 3-10 9l0 64c0 7-3 13-9 19-7 7-10 4-16 0l-19-3c-10-3-16 0-23 7-6 6-9 12-9 22 0 10 3 16 9 22 7 7 16 7 23 7l16-3c6 0 12 0 19 6 6 6 9 13 9 19l0 64c0 3 4 10 10 10l64 0c6 0 13 3 19 9 7 7 7 13 7 20l-4 16c-3 9 0 16 7 22 6 6 13 10 22 10 13 0 26 9 26 25 0 16-16 23-29 23z m128 0c-13 0-26-10-26-26l0-74-70 0c-13 0-26-9-26-25 0-16 10-26 26-26l74 0 0-67c0-13 9-26 25-26 16 0 26 10 26 26l0 74 67 0c13 0 26 9 26 25 0 16-10 26-26 26l-74 0 0 67c4 13-9 26-22 26z"/>
    </symbol>
  
    <symbol id="icon-alarm" viewBox="0 0 512 512">
      <path d="m442 330l-10-10c-6-6-10-13-10-19l-12-109-4-16c-12-51-44-93-92-112 0 0 0 0 0-3 0-29-26-51-55-51l-6 0c-29 0-51 22-51 51 0 3-4 3-7 3-45 19-77 61-86 109l-19 125c0 9-7 16-10 19l-10 9c-9 10-12 20-12 32 0 26 22 48 48 48l307 0c25 0 48-22 48-48-3-9-10-22-19-28z m-340 32l13-10c13-13 23-32 23-48l12-106 4-16c6-32 28-57 60-70 20-10 32-26 32-48 0-3 4-3 4-3l6 0c3 0 3 3 3 3 0 22 13 42 35 48 32 13 52 38 58 70l16 122c3 19 10 35 22 48l10 10z m154 144c-38 0-74-32-74-74l48 0c0 13 10 26 26 26 16 0 26-10 26-26l48 0c0 38-36 74-74 74z"/>
    </symbol>
  
    <symbol id="icon-alert" viewBox="0 0 512 512">
      <path d="m410 394l0-106c0-83-68-154-154-154-86 0-150 71-150 154l0 106c-36 3-64 35-64 70l0 16 48 0 0-16c0-13 9-26 25-26l288 0c13 0 26 10 26 26l0 16 48 0 0-16c-3-38-32-67-67-70z m-48 0l-208 0 0-106c0-58 48-106 105-106 58 0 106 48 106 106l0 106z m-106-384c-13 0-22 9-22 22l0 48c0 13 9 26 25 26 16 0 26-10 26-26l0-48c-3-13-16-22-29-22z m-61 80l-22-42c-7-13-23-16-35-10-10 7-16 20-10 32l22 42c4 10 13 13 23 13 3 0 6 0 13-3 9-7 16-20 9-32z m179-52c-12-6-25-3-32 10l-25 42c-7 12-3 25 9 32 4 3 7 3 13 3 10 0 16-7 23-13l22-42c6-12 0-25-10-32z m84 74c-7-10-23-13-32-6l-42 28c-10 7-13 23-6 32 3 7 12 10 19 10 6 0 9 0 13-3l38-29c16-6 16-22 10-32z m-330 22l-42-28c-9-7-25-7-32 6-6 10-6 26 7 32l38 29c3 3 10 3 13 3 6 0 16-3 19-10 10-9 7-25-3-32z"/>
    </symbol>
  
    <symbol id="icon-area-chart" viewBox="0 0 512 512">
      <path d="m506 416c0 13-10 26-26 26l-448 0c-13 0-26-10-26-26l0-320c0-13 10-26 26-26 16 0 26 13 26 26l0 99 105-70c7-3 13-7 23-3l134 44 122-44c12-4 25 0 32 12 3 13 0 26-13 32l-128 48c-7 4-10 4-16 0l-138-44-121 83 0 54 105-70c10-7 19-7 26 0l131 89 115-57c7-3 16-3 23 0 6 3 12 13 12 19l0 106 10 0c13 0 26 9 26 22z"/>
    </symbol>
  
    <symbol id="icon-back" viewBox="0 0 512 512">
      <path d="m160 410c-6 0-13-4-16-7l-128-128c-3-3-6-6-6-9 0-4-4-7-4-10 0-3 0-6 4-10 0-3 3-6 6-6l128-128c10-10 26-10 35 0 10 10 10 26 0 35l-89 87 390 0c13 0 26 9 26 25 0 16-13 23-26 23l-390 0 86 86c10 10 10 26 0 35-3 3-10 7-16 7z"/>
    </symbol>
  
    <symbol id="icon-badge" viewBox="0 0 512 512">
      <path d="m384 138l-256 0c-67 0-118 51-118 118 0 67 54 122 121 122l256 0c67 0 122-55 122-122 0-67-58-118-125-118z m0 192l-256 0c-38 0-74-32-74-74 0-42 32-74 74-74l256 0c38 0 74 32 74 74 0 42-36 74-74 74z m32-74c0 18-14 32-32 32-18 0-32-14-32-32 0-18 14-32 32-32 18 0 32 14 32 32z m-102 0c0 13-10 26-26 26l-160 0c-13 0-22-13-22-26 0-13 9-22 22-22l160 0c13 0 26 9 26 22z"/>
    </symbol>
  
    <symbol id="icon-basebar" viewBox="0 0 512 512">
      <path d="m448 42l-384 0c-32 0-54 22-54 54l0 320c0 32 25 58 57 58l384 0c32 0 58-26 58-58l0-320c-3-32-29-54-61-54z m10 374c0 3-4 10-10 10l-384 0c-3 0-10-4-10-10l0-134 400 0 0 134z m0-182l-400 0 0-138c0-3 3-10 9-10l384 0c3 0 10 4 10 10l0 138z m-282-58c10 10 10 26 0 35-3 3-10 7-16 7-6 0-13-4-16-10l-32-32c-10-10-10-26 0-35l32-32c10-10 26-10 35 0 10 9 10 25 0 35l-16 16z m106 176c0 13-10 26-26 26l-128 0c-13 0-26-10-26-26 0-16 10-26 26-26l128 0c13 4 26 13 26 26z m128-192c0 13-10 26-26 26l-128 0c-13 0-22-13-22-26 0-13 9-22 22-22l128 0c13 0 26 9 26 22z m16 192c0 13-10 26-26 26l-80 0c-13 0-26-10-26-26 0-16 10-26 26-26l80 0c13 4 26 13 26 26z"/>
    </symbol>
  
    <symbol id="icon-calendar" viewBox="0 0 512 512">
      <path d="m416 74l-26 0 0-26c0-13-9-26-25-26-16 0-26 10-26 26l0 26-169 0 0-26c0-13-10-26-26-26-16 0-22 13-22 26l0 26-26 0c-48 0-86 38-86 86l0 224c0 48 38 90 89 90l320 0c48 0 90-39 90-90l0-224c-3-48-45-86-93-86z m42 310c0 22-20 42-42 42l-320 0c-22 0-42-20-42-42l0-134 400 0 0 134z m0-182l-400 0 0-42c0-22 19-42 41-42l26 0 0 26c0 13 9 26 25 26 16 0 26-10 26-26l0-22 176 0 0 25c0 13 10 26 26 26 16 0 25-10 25-26l0-25 13 0c22 0 42 19 42 41z"/>
    </symbol>
  
    <symbol id="icon-close" viewBox="0 0 512 512">
      <path d="m256 10c-138 0-246 108-246 246 0 138 112 250 249 250 138 0 250-112 250-250 0-138-115-246-253-246z m0 448c-112 0-202-90-202-202 0-112 90-198 202-198 112 0 202 89 202 201 0 112-90 199-202 199z m96-138c10 10 10 26 0 35-6 3-10 7-16 7-6 0-13-4-16-10l-64-64-64 64c-10 10-26 10-35 0-3-6-7-10-7-16 0-6 4-13 10-16l64-64-64-64c-10-10-10-22 0-32 10-10 22-10 32 0l64 64 64-64c10-10 26-10 35 0 10 10 10 26 0 35l-64 64z"/>
    </symbol>
  
    <symbol id="icon-close-xl" viewBox="0 0 512 512">
      <path d="m448 474c-6 0-13-4-19-7l-173-173-173 173c-9 10-25 10-38 0-7-6-7-13-7-19 0-6 4-13 7-19l173-173-173-173c-10-9-10-25 0-38 9-13 25-10 38 0l173 173 173-173c9-10 25-10 38 0 13 9 10 25 0 38l-173 173 173 173c10 9 10 25 0 38-6 3-13 7-19 7z"/>
    </symbol>
  
    <symbol id="icon-collapse-all" viewBox="0 0 512 512">
      <path d="m384 250c-6 0-13-4-16-7l-112-112-112 109c-10 10-26 10-35 0-10-10-10-26 0-35l128-128c9-10 25-10 35 0l128 128c10 9 10 25 0 35-3 6-10 10-16 10z m0 192c-6 0-13-4-16-7l-112-112-112 112c-10 10-26 10-35 0-10-9-10-25 0-35l128-128c9-10 25-10 35 0l128 128c10 10 10 26 0 35-3 3-10 7-16 7z"/>
    </symbol>
  
    <symbol id="icon-expand-all" viewBox="0 0 512 512">
      <path d="m256 442c-6 0-13-4-16-7l-128-128c-10-9-10-25 0-35 10-10 26-10 35 0l109 109 112-112c10-10 26-10 35 0 10 9 10 25 0 35l-128 128c-6 6-13 10-19 10z m0-192c-6 0-13-4-16-7l-128-128c-10-9-10-25 0-35 10-10 26-10 35 0l109 109 112-112c10-10 26-10 35 0 10 9 10 25 0 35l-128 128c-6 6-13 10-19 10z"/>
    </symbol>
  
    <symbol id="icon-escalation-policy" viewBox="0 0 512 512">
      <path d="m170 323l0-70c48-10 86-55 86-109 0-61-51-112-112-112-61 0-112 51-112 112 0 54 38 99 90 109l0 70c-32 10-58 42-58 77 0 45 35 80 80 80 45 0 80-35 80-80 0-35-22-67-54-77z m-90-179c0-35 29-64 64-64 35 0 64 29 64 64 0 35-29 64-64 64-35 0-64-29-64-64z m64 288c-16 0-32-16-32-32 0-16 16-32 32-32 16 0 32 16 32 32 0 16-16 32-32 32z m240-230l-64 0c-13 0-26-10-26-26 0-16 13-22 26-22l64 0c13 0 26 9 26 25 0 16-13 23-26 23z m80-80l-144 0c-13 0-22-13-22-26 0-13 9-22 22-22l144 0c13 0 26 9 26 25 0 16-13 23-26 23z m0 256l-144 0c-13 0-26-10-26-26 0-16 10-26 26-26l144 0c13 0 26 10 26 26 0 16-13 26-26 26z m-80 80l-64 0c-13 0-26-10-26-26 0-16 10-26 26-26l64 0c13 0 26 10 26 26 0 16-13 26-26 26z"/>
    </symbol>
  
    <symbol id="icon-delete" viewBox="0 0 512 512">
      <path d="m432 64l-48 0c0-16-16-32-32-32l-192 0c-16 0-32 16-32 32l-48 0c-26 0-48 22-48 48 0 26 22 48 48 48l26 0 16 259c0 29 25 55 57 55l163 0c29 0 55-23 58-55l10-259 25 0c23 0 45-22 45-48 0-26-22-48-48-48z m-86 352c0 3-4 6-10 6l-160 0c-3 0-10-3-10-6l-12-256 208 0z"/>
    </symbol>
  
    <symbol id="icon-create-service" viewBox="0 0 512 512">
      <path d="m384 490c-13 0-26-10-26-26l0-58-54 0c-13 0-26-9-26-25 0-16 10-26 26-26l58 0 0-51c0-13 9-26 25-26 16 0 26 10 26 26l0 58 57 0c13 0 26 9 26 25 0 16-10 26-26 26l-57 0 0 57c-3 7-16 20-29 20z m48-464l-96 0c-32 0-58 25-58 57l0 96c0 32 26 58 58 58l96 0c32 0 58-26 58-58l0-96c0-35-26-57-58-57z m10 150c0 3-4 10-10 10l-96 0c-3 0-10-4-10-10l0-96c0-3 4-10 10-10l96 0c3 0 10 4 10 10z m-266 106l-96 0c-32 0-58 25-58 57l0 96c0 32 26 58 58 58l96 0c32 0 58-26 58-58l0-96c0-35-26-57-58-57z m10 150c0 3-4 10-10 10l-96 0c-3 0-10-4-10-10l0-96c0-3 4-10 10-10l96 0c3 0 10 4 10 10z m54-320l-96-96c-10-10-26-10-35 0l-96 96c-10 10-10 26 0 35l96 96c6 3 13 7 19 7 6 0 13-4 16-7l96-96c10-13 10-25 0-35z m-112 77l-61-61 61-61 61 61z"/>
    </symbol>
  
    <symbol id="icon-create-routing-key" viewBox="0 0 512 512">
      <path d="m506 176c0 35-10 67-29 93-7 9-23 13-32 6-10-6-13-22-7-32 10-19 20-41 20-67 0-67-55-122-122-122-67 0-118 55-118 122 0 16 3 32 9 45l7 16-144 144 0 45 44 0 20-20 0-60 48 0 0-48 73 0c13 0 26 9 26 25 0 16-10 26-26 26l-25 0 0 48-48 0 0 35-10 0-32 32c-3 3-10 6-16 6l-80 0c-13 0-26-9-26-25l0-80c0-7 4-13 7-16l128-128c-3-13-3-29-3-45 0-93 73-170 169-170 96 0 167 77 167 170z m-106 330c-13 0-26-10-26-26l0-58-54 0c-13 0-26-9-26-25 0-16 10-26 26-26l58 0 0-51c0-13 9-26 25-26 16 0 26 10 26 26l0 58 51 0c13 0 26 9 26 25 0 16-10 26-26 26l-58 0 0 51c4 13-9 26-22 26z m-64-400c-38 0-74 32-74 73 0 42 32 74 74 74 42 0 74-32 74-74 0-41-36-73-74-73z m0 96c-13 0-26-10-26-26 0-16 10-26 26-26 16 0 26 10 26 26 0 16-13 26-26 26z"/>
    </symbol>
  
    <symbol id="icon-create-incident" viewBox="0 0 512 512">
      <path d="m256 474l-224 0c-10 0-16-4-22-13-4-7-4-16 0-26l224-384c9-16 32-16 41 0l96 163c7 13 3 26-9 32-13 7-26 4-32-9l-74-125-182 314 182 0c13 0 26 9 26 25 0 16-13 23-26 23z m128 16c-13 0-26-10-26-26l0-58-54 0c-13 0-26-9-26-25 0-16 10-26 26-26l58 0 0-51c0-13 9-26 25-26 16 0 26 10 26 26l0 58 57 0c13 0 26 9 26 25 0 16-10 26-26 26l-57 0 0 57c-3 7-16 20-29 20z m-128-128c-13 0-26-10-26-26l0-32c0-13 10-26 26-26 16 0 26 10 26 26l0 32c0 13-13 26-26 26z m32-138c0 18-14 32-32 32-18 0-32-14-32-32 0-18 14-32 32-32 18 0 32 14 32 32z"/>
    </symbol>
  
    <symbol id="icon-create-escale-policy" viewBox="0 0 512 512">
      <path d="m170 323l0-70c48-10 86-55 86-109 0-61-51-112-112-112-61 0-112 51-112 112 0 54 38 99 90 109l0 70c-32 10-58 42-58 77 0 45 35 80 80 80 45 0 80-35 80-80 0-35-22-67-54-77z m-90-179c0-35 29-64 64-64 35 0 64 29 64 64 0 35-29 64-64 64-35 0-64-29-64-64z m64 288c-16 0-32-16-32-32 0-16 16-32 32-32 16 0 32 16 32 32 0 16-16 32-32 32z m240-230l-64 0c-13 0-26-10-26-26 0-16 13-22 26-22l64 0c13 0 26 9 26 25 0 16-13 23-26 23z m80-80l-144 0c-13 0-22-13-22-26 0-13 9-22 22-22l144 0c13 0 26 9 26 25 0 16-13 23-26 23z m-80 371c-13 0-26-10-26-26l0-57-54 0c-13 0-26-10-26-26 0-16 10-26 26-26l58 0 0-51c0-13 9-25 25-25 16 0 26 9 26 25l0 58 57 0c13 0 26 9 26 25 0 16-10 26-26 26l-57 0 0 58c-3 6-16 19-29 19z"/>
    </symbol>
  
    <symbol id="icon-create" viewBox="0 0 512 512">
      <path d="m256 474c-13 0-26-10-26-26l0-166-166 0c-13 0-22-13-22-26 0-13 9-22 22-22l170 0 0-170c0-13 9-26 25-26 16 0 23 13 23 26l0 170 166 0c13 0 26 9 26 25 0 16-13 23-26 23l-166 0 0 166c0 13-13 26-26 26z"/>
    </symbol>
  
    <symbol id="icon-create-chart" viewBox="0 0 512 512">
      <path d="m288 442l-224 0c-32 0-58-26-58-58l0-288c0-13 10-26 26-26 16 0 26 13 26 26l0 166 54-54c10-10 26-10 35 0l45 45 112-112c10-10 26-10 35 0 10 9 10 25 0 35l-128 128c-9 10-25 10-35 0l-48-45-74 74 0 51c0 3 4 10 10 10l224 0c13 0 26 9 26 25 0 16-13 23-26 23z m112 0c-13 0-26-10-26-26l0-58-54 0c-13 0-26-9-26-25 0-16 13-19 26-19l58 0 0-58c0-13 9-26 25-26 16 0 26 10 26 26l0 58 51 0c13 0 26 9 26 25 0 16-10 26-26 26l-58 0 0 51c4 13-9 26-22 26z"/>
    </symbol>
  
    <symbol id="icon-create-dashboard" viewBox="0 0 512 512">
      <path d="m208 442l-112 0c-48 0-90-39-90-90l0-256c0-48 39-90 90-90l320 0c48 0 90 39 90 90l0 192c0 13-10 26-26 26-16 0-22-13-22-26l0-192c0-22-20-42-42-42l-320 0c-22 4-38 20-38 42l0 256c0 22 19 42 41 42l112 0c13 0 26 9 26 25 0 16-16 23-29 23z m192 64c-13 0-26-10-26-26l0-58-54 0c-13 0-26-9-26-25 0-16 10-26 26-26l58 0 0-51c0-13 9-26 25-26 16 0 26 10 26 26l0 58 51 0c13 0 26 9 26 25 0 16-10 26-26 26l-58 0 0 51c4 13-9 26-22 26z m-128 0l-112 0c-13 0-26-10-26-26 0-16 10-26 26-26l112 0c13 0 26 10 26 26 0 16-13 26-26 26z m-128-192c-6 0-13-4-16-10-10-10-10-22 0-32l80-80c10-10 26-10 35 0l32 32 39-38-10 0c-13 0-22-13-22-26 0-13 9-26 25-26l64 0c3 0 7 0 10 4 3 0 6 3 6 6 0 3 3 6 7 6 0 4 3 7 3 10l0 64c0 13-10 26-26 26-16 0-25-13-25-26l0-6-58 54c-10 10-22 10-32 0l-32-32-64 64c-3 6-10 10-16 10z"/>
    </symbol>
  
    <symbol id="icon-copy-link" viewBox="0 0 512 512">
      <path d="m144 474c-26 0-51-10-70-29-20-19-32-45-32-74 0-29 9-54 32-73l35-36c9-9 25-9 35 0 10 10 10 26 0 36l-35 35c-10 9-16 25-16 38 0 13 6 29 16 39 22 22 54 19 77 0l96-93c6-10 12-23 12-39 0-12-6-28-16-38-9-10-9-26 0-35 10-10 26-10 36 0 19 19 32 45 32 73 0 29-10 55-32 74l-96 93c-23 19-48 29-74 29z m74-160c-7 0-13-4-16-7-20-19-32-45-32-73 0-29 9-55 32-74l96-93c41-38 102-38 144 0 19 19 32 45 32 74 0 29-10 54-32 73l-36 36c-9 9-25 9-35 0-9-10-9-26 0-36l35-35c10-9 16-25 16-38 0-16-6-29-16-39-22-19-54-19-76 0l-96 93c-10 10-16 23-16 39 0 12 6 28 16 38 9 10 9 26 0 35-4 3-10 7-16 7z"/>
    </symbol>
  
    <symbol id="icon-copy" viewBox="0 0 512 512">
      <path d="m384 42l-160 0c-32 0-54 22-54 54l0 42-42 0c-32 0-54 22-54 54l0 224c0 32 25 58 57 58l160 0c32 0 58-26 58-58l0-42 35 0c32 0 58-25 58-57l0-221c0-32-26-54-58-54z m-86 374c0 3-4 10-10 10l-160 0c-3 0-10-4-10-10l0-224c0-3 4-10 10-10l160 0c3 0 10 4 10 10z m96-96c0 3-4 10-10 10l-42 0 0-138c0-32-25-58-57-58l-67 0 0-38c0-3 3-10 9-10l160 0c3 0 10 4 10 10l0 224z"/>
    </symbol>
  
    <symbol id="icon-collapse-sm" viewBox="0 0 512 512">
      <path d="m352 330c-6 0-13-4-16-7l-80-80-80 77c-10 10-26 10-35 0-10-10-7-22 3-32l96-96c10-10 26-10 35 0l96 96c10 10 10 26 0 35-6 3-13 7-19 7z"/>
    </symbol>
  
    <symbol id="icon-expand-sm" viewBox="0 0 512 512">
      <path d="m256 330c-6 0-13-4-16-7l-96-96c-10-13-10-25 0-35 10-10 26-10 35 0l77 77 80-77c10-10 26-10 35 0 10 10 10 26 0 35l-96 96c-6 3-13 7-19 7z"/>
    </symbol>
  
    <symbol id="icon-export" viewBox="0 0 512 512">
      <path d="m416 474l-320 0c-32 0-58-26-58-58l0-320c4-32 26-54 58-54l96 0c13 0 26 9 26 25 0 16-13 23-26 23l-96 0c-3 0-6 3-6 6l0 320c0 3 3 10 9 10l320 0c3 0 10-4 10-10l0-160c0-13 9-26 25-26 16 0 26 10 26 26l0 160c-6 32-32 58-64 58z m-224-128c-13 0-26-10-26-26l0-32c0-102 84-186 186-186l38 0-54-54c-10-10-10-26 0-35 10-10 26-10 35 0l96 96c3 3 3 6 7 6 0 3 3 7 3 10 0 3 0 6-3 9 0 4-4 7-7 7l-96 96c-9 9-25 9-35 0-10-10-10-26 0-35l54-55-38 0c-74 7-134 67-134 141l0 32c0 13-13 26-26 26z"/>
    </symbol>
  
    <symbol id="icon-favorite" viewBox="0 0 512 512">
      <path d="m502 198c-3-9-12-16-22-16l-154 0-48-140c-3-10-12-16-22-16-10 0-19 6-22 16l-48 140-154 0c-10 0-19 7-22 16-4 10 0 23 9 26l125 86-48 148c-3 9 0 19 10 25 9 7 19 7 28 0l122-89 125 89c3 3 9 3 13 3 3 0 9 0 12-6 10-6 13-16 10-26l-48-140 125-87c9-6 13-19 9-29z m-176 87c-6 6-9 19-6 29l29 89-80-54c-3-3-10-3-13-3-3 0-10 0-13 3l-80 54 29-89c3-10 0-23-10-29l-76-55 96 0c12 0 22-6 25-16l29-89 29 89c3 10 13 16 25 16l96 0z"/>
    </symbol>
  
    <symbol id="icon-favorite-filled" viewBox="0 0 512 512">
      <path d="m493 227l-125 87 48 140c3 10 0 20-10 26-3 3-9 6-12 6-7 0-10 0-13-3l-125-89-125 89c-9 7-19 7-29 0-6-6-9-16-6-25l48-141-125-90c-9-6-13-19-9-29 3-9 12-16 22-16l154 0 48-144c3-6 12-12 22-12 10 0 19 6 22 16l48 144 154 0c10 0 19 6 22 16 4 6 0 19-9 25z"/>
    </symbol>
  
    <symbol id="icon-filter-clear" viewBox="0 0 512 512">
      <path d="m352 378c-6 0-13-4-16-7l-80-80-80 80c-10 10-26 10-35 0-3-3-7-9-7-16 0-6 4-13 7-16l80-83-77-80c-10-10-10-26 0-35 10-10 26-10 35 0l77 80 80-80c10-10 26-10 35 0 10 9 10 25 0 35l-80 80 80 80c10 10 10 26 0 35-6 3-13 7-19 7z"/>
    </symbol>
  
    <symbol id="icon-get-started" viewBox="0 0 512 512">
      <path d="m499 138l-13-112-112-13c-38-3-76 9-105 41l-71 84-19 0c-61 0-115 32-150 80l-32 44 61 36-7 9c-29 35-29 87 3 119l29 28c32 32 87 36 119 4l9-7 35 61 42-22c67-32 102-106 86-176l80-71c32-25 48-64 45-105z m-432 108c19-28 51-48 87-57l-64 73z m106 176c-16 13-39 13-55-3l-28-29c-16-16-16-38-4-54l10-6 86 86z m96 26l-3 0-16-29 83-70c-3 41-26 80-64 99z m157-240l-205 176-93-93 176-205c16-19 38-28 64-25l74 9 9 74c3 26-6 48-25 64z m-90-102c-38 0-74 32-74 73 0 42 32 74 74 74 42 0 74-32 74-74 0-41-36-73-74-73z m0 96c-13 0-26-10-26-26 0-16 10-26 26-26 16 0 26 10 26 26 0 16-13 26-26 26z"/>
    </symbol>
  
    <symbol id="icon-go-to" viewBox="0 0 512 512">
      <path d="m288 378c-6 0-13-4-16-7-10-9-10-25 0-35l54-54-198 0c-13 0-22-13-22-26 0-13 9-22 22-22l198 0-54-58c-10-10-10-26 0-35 10-10 26-10 35 0l96 96c3 3 3 6 7 6 0 3 3 7 3 10 0 3 0 6-3 9 0 4-4 7-7 7l-96 96c-6 9-13 13-19 13z"/>
    </symbol>
  
    <symbol id="icon-history" viewBox="0 0 512 512">
      <path d="m474 256c0 118-96 218-218 218-13 0-26-10-26-26 0-16 10-26 26-26 93 0 170-73 170-169 0-96-77-163-170-163-67 0-125 38-154 96 10-4 20 0 26 6 10 10 10 22 0 32l-48 48c-3 6-13 10-19 6-7 0-13-6-16-12l-32-64c-7-13 0-26 9-32 13-7 26 0 32 9 32-83 109-141 202-141 118 4 218 100 218 218z m-154 26l-64 0c-13 0-22-13-22-26l0-96c0-13 9-26 25-26 16 0 23 13 23 26l0 74 38 0c13 0 26 9 26 25 0 16-13 23-26 23z"/>
    </symbol>
  
    <symbol id="icon-import" viewBox="0 0 512 512">
      <path d="m416 474l-320 0c-32 0-58-26-58-58l0-320c4-32 26-54 58-54l96 0c13 0 26 9 26 25 0 16-13 23-26 23l-96 0c-3 0-6 3-6 6l0 320c0 3 3 10 9 10l320 0c3 0 10-4 10-10l0-160c0-13 9-26 25-26 16 0 26 10 26 26l0 160c-6 32-32 58-64 58z m-160-128c-3 0-6 0-10-4-3 0-6-3-6-6l-96-96c-10-10-10-26 0-35 10-10 26-10 35 0l55 54 0-35c0-102 83-186 185-186l32 0c13 0 26 10 26 26 0 16-16 26-29 26l-32 0c-74 0-138 60-138 137l0 39 55-55c9-9 25-9 35 0 10 10 10 26 0 35l-96 96c-3 4-6 4-6 7-4-7-7-3-10-3z"/>
    </symbol>
  
    <symbol id="icon-home" viewBox="0 0 512 512">
      <path d="m448 198l-176-153c-10-7-22-7-32 0l-176 153c-6 4-6 10-6 16l0 234c0 13 9 26 25 26l352 0c13 0 26-10 26-26l0-234c-3-6-7-12-13-16z m-150 228l-80 0 0-112 80 0z m112 0l-64 0 0-138c0-13-10-26-26-26l-128 0c-13 4-22 13-22 26l0 138-64 0 0-199 150-131 154 131z"/>
    </symbol>
  
    <symbol id="icon-incident" viewBox="0 0 512 512">
      <path d="m502 435l-224-384c-9-16-32-16-41 0l-224 384c-3 7-3 16 0 26 3 6 13 13 22 13l448 0c10 0 16-4 23-13 0-10 0-19-4-26z m-428-9l182-314 182 314z m208-122l0 64c0 13-10 26-26 26-16 0-26-10-26-26l0-64c0-13 10-26 26-26 16 0 26 13 26 26z m6-80c0 18-14 32-32 32-18 0-32-14-32-32 0-18 14-32 32-32 18 0 32 14 32 32z"/>
    </symbol>
  
    <symbol id="icon-info-container" viewBox="0 0 512 512">
      <path d="m416 74l-320 0c-48 0-86 38-86 86l0 192c0 48 38 90 89 90l320 0c48 0 90-39 90-90l0-192c-3-48-45-86-93-86z m42 278c0 22-20 42-42 42l-320 0c-22 0-42-20-42-42l0-192c0-22 20-42 42-42l320 0c22 0 42 20 42 42z m-240-160c0 13-10 26-26 26l-64 0c-13 0-22-13-22-26 0-13 9-22 22-22l64 0c13 0 26 9 26 22z m0 96c0 13-10 26-26 26l-64 0c-13 0-22-13-22-26 0-13 9-22 22-22l64 0c13 0 26 9 26 22z m192-96c0 13-10 26-26 26l-96 0c-13 0-22-13-22-26 0-13 9-22 22-22l96 0c13 0 26 9 26 22z m0 96c0 13-10 26-26 26l-96 0c-13 0-22-13-22-26 0-13 9-22 22-22l96 0c13 0 26 9 26 22z"/>
    </symbol>
  
    <symbol id="icon-info" viewBox="0 0 512 512">
      <path d="m256 10c-138 0-246 108-246 246 0 138 112 250 249 250 138 0 250-112 250-250 0-138-115-246-253-246z m0 448c-112 0-202-90-202-202 0-112 90-198 202-198 112 0 202 89 202 201 0 112-90 199-202 199z m26-202l0 112c0 13-10 26-26 26-16 0-26-10-26-26l0-112c0-13 10-26 26-26 16 0 26 13 26 26z m6-96c0 18-14 32-32 32-18 0-32-14-32-32 0-18 14-32 32-32 18 0 32 14 32 32z"/>
    </symbol>
  
    <symbol id="icon-notification" viewBox="0 0 512 512">
      <path d="m346 42c-16-10-39-10-58 3l-134 93-90 0c-32 0-54 22-54 54l0 96c0 29 22 51 48 54l0 74c0 32 25 58 57 58l13 0c32 0 58-26 58-58l0-51 102 70c16 13 38 13 58 3 19-9 28-28 28-48l0-297c4-23-9-42-28-51z m-208 374c0 3-4 10-10 10l-16 0c-3 0-10-4-10-10l0-74 32 0 0 74z m0-118l-74 0c-3 0-6-7-6-10l0-96c0-3 3-10 9-10l74 0 0 116z m192 89c0 3-4 7-4 7 0 0-6 3-9 0l-131-87 0-134 131-87c3-3 6 0 9 0 0 0 4 4 4 7z m150-121l-48 0c-13 0-26-10-26-26 0-16 10-26 26-26l48 0c13 0 26 10 26 26 0 16-13 26-26 26z m-48-96c-6 0-16-4-19-10-7-10-3-26 6-32l48-32c10-6 26-3 32 6 7 10 3 26-6 32l-48 32c-3 0-10 4-13 4z m48 224c-3 0-10 0-13-4l-48-32c-9-6-13-22-6-32 6-9 22-12 32-6l48 32c9 6 13 22 6 32-3 3-13 10-19 10z"/>
    </symbol>
  
    <symbol id="icon-notice" viewBox="0 0 512 512">
      <path d="m416 74l-320 0c-48 0-86 38-86 86l0 192c0 48 38 90 89 90l320 0c48 0 90-39 90-90l0-192c-3-48-45-86-93-86z m42 278c0 22-20 42-42 42l-320 0c-22 0-42-20-42-42l0-192c0-22 20-42 42-42l320 0c22 0 42 20 42 42z m-154-144c0 16-16 32-32 32l-128 0c-16 0-32-16-32-32 0-16 16-32 32-32l128 0c16 0 32 16 32 32z m96 106c0 12-10 25-26 25l-236 0c-13 0-26-9-26-25 0-16 10-26 26-26l240 0c12 0 22 10 22 26z"/>
    </symbol>
  
    <symbol id="icon-menu-icon-open" viewBox="0 0 512 512">
      <path d="m397 16l-282 0c-54 0-99 45-99 99l0 282c0 54 45 99 99 99l282 0c54 0 99-45 99-99l0-282c0-54-45-99-99-99z m-195 432l-87 0c-29 0-51-22-51-51l0-282c0-29 22-51 51-51l87 0z m246-51c0 29-22 51-51 51l-147 0 0-384 147 0c29 0 51 22 51 51z m-51-125l-64 61c-3 6-10 6-16 6-7 0-13-3-16-6-10-10-10-26 0-35l45-42-45-45c-10-9-10-25 0-35 9-10 25-10 35 0l64 61c6 13 6 25-3 35z"/>
    </symbol>
  
    <symbol id="icon-menu-icon-close" viewBox="0 0 512 512">
      <path d="m397 16l-282 0c-54 0-99 45-99 99l0 282c0 54 45 99 99 99l282 0c54 0 99-45 99-99l0-282c0-54-45-99-99-99z m-195 432l-87 0c-29 0-51-22-51-51l0-282c0-29 22-51 51-51l87 0z m246-51c0 29-22 51-51 51l-147 0 0-384 147 0c29 0 51 22 51 51z m-51-96c9 9 9 25 0 35-3 6-10 6-16 6-7 0-13-3-16-6l-64-61c-3-6-7-13-7-19 0-6 4-13 7-16l64-61c9-9 25-9 35 0 10 10 10 26 0 35l-48 42z"/>
    </symbol>
  
    <symbol id="icon-link" viewBox="0 0 512 512">
      <path d="m320 410l-160 0c-32 0-58-26-58-58l0-160c4-32 26-54 58-54l32 0c13 0 26 9 26 25 0 16-13 23-26 23l-32 0c-3 0-6 3-6 6l0 160c0 3 3 10 9 10l160 0c3 0 10-4 10-10l0-32c0-13 9-26 25-26 16 0 26 10 26 26l0 32c-6 32-32 58-64 58z m-64-128c-6 0-13-4-16-7-10-9-10-25 0-35l86-86-54 0c-13 0-22-13-22-26 0-13 9-26 25-26l109 0c3 0 6 0 10 4 3 0 6 3 6 6 0 3 3 6 6 6 0 4 4 7 4 10l0 112c0 13-10 26-26 26-16 0-26-10-26-26l0-54-86 86c-3 6-10 10-16 10z"/>
    </symbol>
  
    <symbol id="icon-line-chart" viewBox="0 0 512 512">
      <path d="m506 416c0 13-10 26-26 26l-448 0c-13 0-26-10-26-26l0-320c0-13 10-26 26-26 16 0 26 13 26 26l0 173 121-96c7-7 16-7 26-3l112 57 115-115c10-10 26-10 35 0 10 10 10 26 0 35l-128 128c-9 7-19 7-29 3l-115-57-137 112 0 61 422 0c13 0 26 9 26 22z"/>
    </symbol>
  
    <symbol id="icon-legend-right" viewBox="0 0 512 512">
      <path d="m384 42l-256 0c-48 0-86 38-86 86l0 256c0 48 38 90 89 90l256 0c48 0 90-39 90-90l0-256c-3-48-45-86-93-86z m42 342c0 22-20 42-42 42l-256 0c-22 0-42-20-42-42l0-256c0-22 20-42 42-42l256 0c22 0 42 20 42 42z m-48-224l0 192c0 13-10 26-26 26-16 0-26-10-26-26l0-192c0-13 10-26 26-26 16 0 26 13 26 26z"/>
    </symbol>
  
    <symbol id="icon-legend-hidden" viewBox="0 0 512 512">
      <path d="m384 474l-256 0c-48 0-90-39-90-90l0-256c0-48 39-90 90-90l256 0c48 0 90 39 90 90l0 256c0 48-42 90-90 90z m-256-384c-22 0-38 16-38 38l0 256c0 22 19 42 41 42l256 0c23 0 42-20 42-42l0-256c0-22-19-42-42-42l-259 0z"/>
    </symbol>
  
    <symbol id="icon-legend-bottom" viewBox="0 0 512 512">
      <path d="m384 42l-256 0c-48 0-86 38-86 86l0 256c0 48 38 90 89 90l256 0c48 0 90-39 90-90l0-256c-3-48-45-86-93-86z m42 342c0 22-20 42-42 42l-256 0c-22 0-42-20-42-42l0-256c0-22 20-42 42-42l256 0c22 0 42 20 42 42z m-48-32c0 13-10 26-26 26l-192 0c-13 0-26-10-26-26 0-16 10-26 26-26l192 0c13 4 26 13 26 26z"/>
    </symbol>
  
    <symbol id="icon-intro-box" viewBox="0 0 512 512">
      <path d="m416 74l-320 0c-48 0-86 38-86 86l0 192c0 48 38 90 89 90l320 0c48 0 90-39 90-90l0-192c-3-48-45-86-93-86z m42 278c0 22-20 42-42 42l-320 0c-22 0-42-20-42-42l0-192c0-22 20-42 42-42l320 0c22 0 42 20 42 42z m-176-80l0 64c0 13-10 26-26 26-16 0-26-10-26-26l0-64c0-13 10-26 26-26 16 0 26 13 26 26z m6-80c0 18-14 32-32 32-18 0-32-14-32-32 0-18 14-32 32-32 18 0 32 14 32 32z"/>
    </symbol>
  
    <symbol id="icon-integration" viewBox="0 0 512 512">
      <path d="m426 227l19 3c6 0 13 0 19-6 6-6 10-13 10-19l0-64c0-32-26-58-58-58l-35 0c0-19-7-38-16-51-32-32-90-32-119 3-12 16-19 32-16 51l-38 0c-32 0-58 26-58 58l0 35c-19 0-38 7-51 16-16 16-25 39-25 61 0 22 9 45 28 58 16 12 32 19 52 16l0 35c0 32 25 57 57 57l35 0c0 20 7 39 16 52 16 16 36 28 58 28 22 0 45-9 58-28 12-16 19-32 16-52l38 0c32 0 58-25 58-57l0-64c0-7-4-13-10-19-6-4-13-7-19-7l-16 3c-10 0-16 0-23-6-6-6-9-13-9-22 0-10 3-16 9-23 4 3 10 0 20 0z m-55 87c16 12 32 19 51 16l0 35c0 3-3 9-9 9l-64 0c-7 0-13 4-19 10-4 6-7 13-7 19l3 16c0 10 0 16-6 23-10 12-32 12-45 0-6-7-6-16-6-23l3-16c0-6 0-16-6-19-4-6-13-10-20-10l-54 0c-3 0-10-3-10-9l0-64c0-7-3-13-9-19-3 0-7 0-13 0 0 0-3 0-6 0l-16 3c-10 0-16 0-23-7-6-6-9-12-9-22 0-10 3-16 9-22 7-7 13-7 23-7l16 3c6 0 16 0 19-6 6-3 9-13 9-19l0-64c0-3 4-10 10-10l64 0c6 0 13-3 19-9 3-7 7-13 7-20l-7-12c0-10 0-16 7-23 9-13 32-13 44 0 7 7 7 16 7 23l-3 16c0 6 0 16 6 19 3 6 13 9 19 9l64 0c3 0 10 4 10 10l0 35c-19 0-39 7-51 16-16 16-29 35-29 58-3 25 6 48 22 61z"/>
    </symbol>
  
    <symbol id="icon-infras-list" viewBox="0 0 512 512">
      <path d="m48 282c-6 0-16-7-19-10-13-19-23-38-23-64 0-58 45-102 103-102 16-58 70-96 131-96 48 0 93 25 118 67 10-3 20-3 26-3 67 0 122 54 122 121 0 29-10 58-32 80-10 10-26 10-36 3-9-9-9-25-3-35 13-16 23-32 23-51 0-38-32-74-74-74-10 0-19 4-29 7l-22 9-10-22c-13-32-48-54-83-54-45 0-83 32-86 76l-4 26-25-6c-3 0-7 0-13 0-32 0-58 25-58 57 0 13 4 23 10 32 10 10 10 26 0 32-6 3-10 7-16 7z m346 22c9-10 16-26 16-42 0-35-29-64-64-64l-176 0c-36 0-64 29-64 64 0 16 6 29 16 42-10 10-16 26-16 42 0 16 6 28 16 41-10 10-16 26-16 42 0 35 28 64 64 64l176 0c35 0 64-29 64-64 0-16-7-29-16-42 9-9 16-25 16-41 0-16-7-32-16-42z m-48 138l-176 0c-10 0-16-7-16-16 0-10 6-16 16-16l176 0c9 0 16 6 16 16 0 9-10 16-16 16z m0-80l-176 0c-10 0-16-7-16-16 0-10 6-16 16-16l176 0c9 0 16 6 16 16 0 9-10 16-16 16z m0-80l-176 0c-10 0-16-10-16-16 0-7 6-16 16-16l176 0c9 0 16 6 16 16 0 9-10 16-16 16z"/>
    </symbol>
  
    <symbol id="icon-number-chart" viewBox="0 0 512 512">
      <path d="m208 112l-61 0-73 48 0 58 70-45 3 0 0 243 64 0 0-304z m205 0l-61 0-74 48 0 58 71-45 3 0 0 243 64 0 0-304z"/>
    </symbol>
  
    <symbol id="icon-overview" viewBox="0 0 512 512">
      <path d="m502 246c-38-80-131-156-246-156-115 0-208 76-246 156-4 7-4 16 0 23 38 77 131 157 246 157 115 0 208-80 246-157 4-10 4-16 0-23z m-246 132c-102 0-170-71-198-122 28-48 96-122 198-122 102 0 170 71 198 122-28 48-96 122-198 122z m0-218c-54 0-96 42-96 96 0 54 42 96 96 96 54 0 96-42 96-96 0-54-42-96-96-96z m0 144c-26 0-48-22-48-48 0-26 22-48 48-48 26 0 48 22 48 48 0 26-22 48-48 48z"/>
    </symbol>
  
    <symbol id="icon-page-next" viewBox="0 0 512 512">
      <path d="m208 378c-6 0-13-4-16-7-10-9-10-25 0-35l77-80-77-80c-10-10-10-22 0-32 10-10 26-10 35 0l96 96c10 10 10 26 0 35l-96 96c-6 3-13 7-19 7z"/>
    </symbol>
  
    <symbol id="icon-page-prev" viewBox="0 0 512 512">
      <path d="m304 378c-6 0-13-4-16-7l-96-96c-10-13-10-25 0-35l96-96c10-10 26-10 35 0 10 10 10 26 0 35l-80 77 80 80c10 10 10 26 0 35-6 3-13 7-19 7z"/>
    </symbol>
  
    <symbol id="icon-profile" viewBox="0 0 512 512">
      <path d="m256 26c-74 0-134 60-134 134 0 74 60 138 134 138 74 0 138-61 138-138 0-77-64-134-138-134z m0 224c-48 0-86-42-86-90 0-48 38-86 86-86 48 0 90 38 90 89 0 51-42 87-90 87z m182 256c-9 0-19-7-22-16-22-68-86-112-160-112-74 0-134 44-160 112-3 12-19 19-32 16-13-4-19-20-16-32 32-87 112-144 205-144 93 0 173 57 205 144 3 12-4 25-16 32 0-4-4 0-4 0z"/>
    </symbol>
  
    <symbol id="icon-quota" viewBox="0 0 512 512">
      <path d="m448 42c-13 0-26 9-26 25l0 170-332 0 0-173c0-13-10-26-26-26-16 0-22 13-22 26l0 320c0 48 38 90 89 90l256 0c48 0 90-39 90-90l0-320c-3-13-16-22-29-22z m-22 342c0 22-20 42-42 42l-256 0c-22 0-42-20-42-42l0-102 336 0 0 102z m-250-278l-32 0c-13 0-22 9-22 22 0 13 9 26 25 26l32 0c13 0 26-10 26-26 0-16-16-22-29-22z m96 0l-32 0c-13 0-22 9-22 22 0 13 9 26 25 26l32 0c13 0 26-10 26-26 0-16-16-22-29-22z m96 0l-32 0c-13 0-26 9-26 25 0 16 10 26 26 26l32 0c13 0 26-10 26-26 0-16-13-25-26-25z"/>
    </symbol>
  
    <symbol id="icon-reassign" viewBox="0 0 512 512">
      <path d="m502 202l-32 64c-3 6-9 12-16 12-6 0-16 0-22-6l-48-48c-6-6-10-16-6-26 3-9 9-16 19-16l13-3c-29-51-87-89-154-89-93 0-166 73-166 166 0 13-10 26-26 26-16 0-22-13-22-26 0-118 96-218 217-218 90 0 167 55 199 132l19-4c9 0 19 4 25 10 4 10 4 19 0 26z m-246-32c-48 0-86 38-86 86 0 48 38 90 89 90 51 0 90-39 90-90 0-51-45-86-93-86z m0 128c-22 0-38-20-38-42 0-22 16-38 38-38 22 0 42 16 42 38 0 22-20 42-42 42z m-128 201c-3 0-10 0-13-3-13-6-16-22-9-32 32-54 86-86 147-86 61 0 118 32 147 86 6 13 3 26-10 32-12 6-25 3-32-10-22-38-64-60-108-60-45 0-87 22-109 60 3 7-3 13-13 13z"/>
    </symbol>
  
    <symbol id="icon-reload" viewBox="0 0 512 512">
      <path d="m448 474c-13 0-22-10-22-23l-4-54c-41 48-99 73-163 73-93 0-173-57-205-144-3-12 4-25 16-32 13-3 26 4 32 16 23 68 87 112 160 112 55 0 103-25 135-67l-64 16c-13 3-26-3-29-16-3-13 3-25 16-29l115-32c3 0 3 0 7 0 0 0 3 0 3 0 3 0 6 0 6 4 3 0 3 3 7 6 0 0 3 3 3 3 0 3 3 3 3 7 0 0 0 3 0 3l10 128c0 13-10 25-26 29 0-4 0 0 0 0z m-10-256c-9 0-19-7-22-16-22-68-86-112-160-112-54 0-102 25-134 67l64-16c12-3 25 3 28 16 4 13-3 25-16 29l-115 32c-3 0-3 0-6 0 0 0-3 0-3 0-4 0-7 0-7-4-3 0-3-3-6-6 0 0-3-3-3-3 0-3-4-3-4-7 0 0 0-3 0-3l-9-128c0-13 9-25 22-25 13 0 26 9 26 22l3 54c35-51 96-76 160-76 93 0 173 57 205 144 3 12-3 25-16 32-3-4-7 0-7 0z"/>
    </symbol>
  
    <symbol id="icon-remove" viewBox="0 0 512 512">
      <path d="m256 10c-138 0-246 108-246 246 0 138 112 250 249 250 138 0 250-112 250-250 0-138-115-246-253-246z m0 448c-112 0-202-90-202-202 0-112 90-198 202-198 112 0 202 89 202 201 0 112-90 199-202 199z m122-202c0 13-10 26-26 26l-192 0c-13 0-22-13-22-26 0-13 9-22 22-22l192 0c13 0 26 9 26 22z"/>
    </symbol>
  
    <symbol id="icon-right-panel" viewBox="0 0 512 512">
      <path d="m416 42l-320 0c-48 0-86 38-86 86l0 256c0 48 38 90 89 90l320 0c48 0 90-39 90-90l0-256c-3-48-45-86-93-86z m-246 384l-74 0c-22 0-42-20-42-42l0-256c0-22 20-42 42-42l74 0z m288-42c0 22-20 42-42 42l-198 0 0-336 198 0c22 0 42 19 42 41z m-42-208c0 27-21 48-48 48-27 0-48-21-48-48 0-27 21-48 48-48 27 0 48 21 48 48z"/>
    </symbol>
  
    <symbol id="icon-save" viewBox="0 0 512 512">
      <path d="m224 410c-6 0-13-4-16-7l-160-160c-10-9-10-25 0-35 10-10 26-10 35 0l141 141 208-208c10-10 26-10 35 0 10 9 10 25 0 35l-224 224c-6 6-13 10-19 10z"/>
    </symbol>
  
    <symbol id="icon-service" viewBox="0 0 512 512">
      <path d="m432 282l-96 0c-32 0-58 25-58 57l0 96c0 32 26 58 58 58l96 0c32 0 58-26 58-58l0-96c0-35-26-57-58-57z m10 150c0 3-4 10-10 10l-96 0c-3 0-10-4-10-10l0-96c0-3 4-10 10-10l96 0c3 0 10 4 10 10z m-10-406l-96 0c-32 0-58 25-58 57l0 96c0 32 26 58 58 58l96 0c32 0 58-26 58-58l0-96c0-35-26-57-58-57z m10 150c0 3-4 10-10 10l-96 0c-3 0-10-4-10-10l0-96c0-3 4-10 10-10l96 0c3 0 10 4 10 10z m-266 106l-96 0c-32 0-58 25-58 57l0 96c0 32 26 58 58 58l96 0c32 0 58-26 58-58l0-96c0-35-26-57-58-57z m10 150c0 3-4 10-10 10l-96 0c-3 0-10-4-10-10l0-96c0-3 4-10 10-10l96 0c3 0 10 4 10 10z m54-320l-96-96c-10-10-26-10-35 0l-96 96c-10 10-10 26 0 35l96 96c6 3 13 7 19 7 6 0 13-4 16-7l96-96c10-13 10-25 0-35z m-112 77l-61-61 61-61 61 61z"/>
    </symbol>
  
    <symbol id="icon-setting" viewBox="0 0 512 512">
      <path d="m486 304l-32-19c0-10 4-19 4-32 0-13 0-23-4-32l32-19c7-4 10-10 10-16 3-7 0-13-3-20l-45-76c-3-7-10-10-16-13-6 0-13 0-19 3l-32 19c-16-13-35-22-55-32l0-35c0-13-9-26-25-26l-96 0c-10 4-19 13-19 26l0 38c-20 7-39 16-55 32l-32-19c-6-3-13-6-19-3-6 0-13 6-16 10l-48 83c-3 6-3 13 0 19 0 6 6 13 10 16l32 19c0 10-4 19-4 32 0 13 0 23 4 32l-32 19c-13 7-16 23-10 32l48 80c3 7 10 10 16 13 6 0 13 0 19-3l32-19c16 13 35 22 55 32l0 35c0 13 9 26 25 26l96 0c13 0 26-10 26-26l0-38c19-7 38-16 54-32l32 19c13 6 26 3 32-10l48-83c3-6 3-13 3-19-6-3-9-7-16-13z m-83-86c3 12 3 25 3 38 0 13 0 26-3 38l-3 20 16 6 26 16-26 42-26-16-16-10-12 13c-20 16-42 29-64 38l-16 7 0 48-48 0 0-48-16-7c-26-6-48-19-64-38l-16-13-16 10-26 16-26-42 26-16 16-10-3-16c-3-12-3-25-3-38 0-13 0-26 3-38l3-20-16-6-26-16 26-42 26 16 16 10 12-13c20-16 42-29 64-38l16-7 0-44 48 0 0 48 16 6c26 6 48 19 64 38l16 10 16-10 26-16 26 42-26 16-16 10z m-147-48c-48 0-86 38-86 86 0 48 38 90 89 90 51 0 90-39 90-90 0-51-45-86-93-86z m0 128c-22 0-38-20-38-42 0-22 16-38 38-38 22 0 42 16 42 38 0 22-20 42-42 42z"/>
    </symbol>
  
    <symbol id="icon-vserver" viewBox="0 0 512 512">
      <path d="m384 106l-3 0c-29-42-77-64-125-64-64 0-118 38-141 96-57 0-105 44-105 105 0 58 48 106 105 106l269 0c67 0 122-55 122-122 0-67-55-121-122-121z m0 192l-272 0c-32 0-58-26-58-58 0-32 26-58 58-58 3 0 10 0 13 0l25 10 7-22c9-48 51-80 99-80 38 0 74 19 90 54l9 16 16-3c3 0 10 0 13 0 38 0 74 32 74 73 0 42-36 68-74 68z m-96 118c0 18-14 32-32 32-18 0-32-14-32-32 0-18 14-32 32-32 18 0 32 14 32 32z m-128 26l-96 0c-13 0-26-10-26-26 0-16 10-26 26-26l96 0c13 0 26 10 26 26 0 16-13 26-26 26z m288 0l-96 0c-13 0-26-10-26-26 0-16 10-26 26-26l96 0c13 0 26 10 26 26 0 16-13 26-26 26z"/>
    </symbol>
  
    <symbol id="icon-vlb" viewBox="0 0 512 512">
      <path d="m320 256c0 35-29 64-64 64-26 0-51-16-58-42l-92 0c-10 16-26 26-42 26-26 0-48-22-48-48 0-26 22-48 48-48 16 0 32 10 42 26l92 0c7-26 32-42 58-42 35 0 64 29 64 64z m0-102c-6 0-13-4-16-7-10-9-10-25 0-35l54-54-22 0c-13 0-26-10-26-26 0-16 10-26 26-26l80 0c3 0 6 0 10 4 3 0 6 3 6 6 0 3 3 6 6 6 0 4 4 7 4 10l0 80c0 13-10 26-26 26-16 0-26-10-26-26l0-22-54 54c-3 6-10 10-16 10z m96 352l-80 0c-13 0-26-10-26-26 0-16 10-26 26-26l22 0-54-54c-10-10-10-26 0-35 10-10 26-10 35 0l55 54 0-22c0-13 9-26 25-26 16 0 26 10 26 26l0 83c0 3 0 6-3 10 0 3-4 6-7 6-3 0-6 3-6 6-7 0-10 4-13 4z m0-160c-6 0-13-4-16-7-10-9-10-25 0-35l22-22-54 0c-13 0-26-10-26-26 0-16 10-26 26-26l54 0-22-22c-10-10-10-26 0-35 10-10 26-10 35 0l64 64c3 3 3 6 7 6 0 3 3 7 3 10 0 3 0 6-3 9 0 4-4 7-7 7l-64 64c-6 9-13 13-19 13z"/>
    </symbol>
  
    <symbol id="icon-vdb" viewBox="0 0 512 512">
      <path d="m256 42c-102 0-214 25-214 86l0 256c0 61 112 90 217 90 106 0 218-29 218-90l0-256c-3-61-115-86-221-86z m170 342c-4 10-61 42-170 42-109 0-166-29-170-42l0-70c84 41 253 41 336 0l0 70z m0-128c-7 10-61 42-170 42-109 0-166-32-166-42l0-70c83 41 252 41 336 0z m-170-86c-109 0-163-32-166-42 3-10 60-38 166-38 106 0 163 28 170 41-7 10-64 39-170 39z"/>
    </symbol>
  
    <symbol id="icon-vcm-dashboard" viewBox="0 0 512 512">
      <path d="m416 10l-320 0c-48 0-86 38-86 86l0 256c0 48 38 90 89 90l320 0c48 0 90-39 90-90l0-256c-3-48-45-86-93-86z m42 342c0 22-20 42-42 42l-320 0c-22 0-42-20-42-42l0-256c0-22 20-42 42-42l320 0c22 0 42 20 42 42z m-106 154l-192 0c-13 0-26-10-26-26 0-16 10-26 26-26l192 0c13 0 26 10 26 26 0 16-13 26-26 26z m42-346l0 64c0 13-10 26-26 26-16 0-22-13-22-26l0-6-58 54c-10 10-22 10-32 0l-32-32-64 64c-3 6-10 10-16 10-6 0-13-4-16-10-10-10-10-22 0-32l80-80c10-10 26-10 35 0l32 32 39-38-10 0c-13 0-22-13-22-26 0-13 9-26 25-26l64 0c3 0 7 0 10 4 3 0 6 3 6 6 3 3 3 6 7 6-4 4 0 7 0 10z"/>
    </symbol>
  
    <symbol id="icon-vas" viewBox="0 0 512 512">
      <path d="m368 214c0-3 3-3 3-6 0 0 0-3 0-3 0-3 0-3 0-7 0-3-3-3-3-6 0 0 0 0-3-3 0 0-3-3-3-3 0 0 0 0-4 0l-83-39c0 0 0-3 0-3l0-29 13 0c10 0 16-6 19-13 3-6 0-16-3-22l-32-32c-3 0-3-3-6-3-4 0-4 0-7 0-3 0-6 0-6 0-3 0-3 3-7 3l-32 32c-9 6-12 16-9 22 3 10 13 13 19 13l13 0 0 29c0 0 0 3 0 3l-83 39c0 0 0 0-4 0 0 0-3 3-3 3 0 3-3 3-3 6 0 3 0 3 0 7 0 0 0 3 0 3 0 3 0 3 3 6 0 0 0 0 0 3 19 26 19 58 0 84-6 3-9 9-6 16 0 6 6 9 9 12l84 39 0 32-10 0c-10 0-16 6-19 13-3 6 0 16 3 22l32 32c3 0 3 3 6 3 4 0 4 0 7 0 3 0 6 0 6 0 3 0 3-3 7-3l32-32c6-6 6-16 3-22-3-7-10-13-19-13l-7 0 0-32 83-39c7-3 10-6 10-12 3-7 0-13-3-16-16-26-16-58 3-84z m-131 106l-48-19c9-19 9-39 9-58l39 16z m19-96l-48-22 48-20 48 23z m19 96l0-64 39-16c-4 19 0 42 9 58z m-195-13c-3 0-6 0-6 0-10-3-13-9-13-19l0-13-29 0c-10 0-19-9-19-19 0-10 9-19 19-19l29 0 0-13c0-10 6-16 13-19 6-3 16 0 22 3l32 32c0 3 0 6 3 10 0 3 0 6 0 6 0 3 0 6 0 6-3 4-3 7-3 7l-32 32c-6 6-10 6-16 6z m352 0c-6 0-10-3-13-6l-32-32c-3 0-3-3-6-7 0-3 0-6 0-6 0-3 0-6 0-6 3-4 3-7 3-7l32-32c6-6 13-6 22-3 10 0 13 6 13 16l0 13 29 0c10 0 19 9 19 19 0 10-9 19-19 19l-29 0 0 13c0 10-6 16-13 19 0 0-3 0-6 0z"/>
    </symbol>
  
    <symbol id="icon-uptime-check" viewBox="0 0 512 512">
      <path d="m416 10l-320 0c-48 0-86 38-86 86l0 256c0 48 38 90 89 90l320 0c48 0 90-39 90-90l0-256c-3-48-45-86-93-86z m42 342c0 22-20 42-42 42l-320 0c-22 0-42-20-42-42l0-256c0-22 20-42 42-42l320 0c22 0 42 20 42 42z m-106 154l-192 0c-13 0-26-10-26-26 0-16 10-26 26-26l192 0c13 0 26 10 26 26 0 16-13 26-26 26z m16-266c-10 10-26 10-35 0l-51-54 0 134c0 13-10 26-26 26-16 0-22-13-22-26l0-134-58 54c-10 10-26 10-35 0-10-10-10-26 0-35l96-96c3-3 6-3 6-7 7-3 13-3 19 0 4 0 7 4 7 7l96 96c13 13 13 25 3 35z"/>
    </symbol>
  
    <symbol id="icon-unsort" viewBox="0 0 512 512">
      <path d="m352 208c-3 0-10 0-13-3l-83-87-83 87c-7 6-16 6-23 0-6-7-6-16 0-23l96-96c7-6 16-6 23 0l96 96c6 7 6 16 0 23-3 3-10 3-13 3z m-96 224c-3 0-10 0-13-3l-96-96c-6-7-6-16 0-23 7-6 16-6 23 0l86 84 83-84c7-6 16-6 23 0 6 7 6 16 0 23l-96 96c0 3-7 3-10 3z"/>
    </symbol>
  
    <symbol id="icon-tooltip" viewBox="0 0 512 512">
      <path d="m416 90l-320 0c-48 0-86 38-86 86l0 192c0 48 38 90 89 90l320 0c48 0 90-39 90-90l0-192c-3-48-45-86-93-86z m42 278c0 22-20 42-42 42l-320 0c-22 0-42-20-42-42l0-192c0-22 20-42 42-42l320 0c22 0 42 20 42 42z m-144-144c0 10-4 22-10 32-3 3-6 10-13 13-3 6-9 16-9 19l-48 0c0-22 12-35 22-48 0-3 3-6 6-13 0 0 0-3 0-3 0-10-16-10-16 0l-44 0c0-32 22-54 54-54 32 0 58 22 58 54z m-26 112c0 18-14 32-32 32-18 0-32-14-32-32 0-18 14-32 32-32 18 0 32 14 32 32z"/>
    </symbol>
  
    <symbol id="icon-status-chart" viewBox="0 0 512 512">
      <path d="m480 74c-13 0-26 9-26 25l0 32-396 0 0-35c0-13-10-26-26-26-16 0-22 13-22 26l0 336c0 13 9 26 25 26 16 0 26-10 26-26l0-32 400 0 0 32c0 13 9 26 25 26 16 0 26-10 26-26l0-336c-6-13-19-22-32-22z m-224 278l-64 0 0-176 64 0z m202 0l-106 0 0-176 106 0z"/>
    </symbol>
  
    <symbol id="icon-sort" viewBox="0 0 512 512">
      <path d="m256 400c-3 0-3 0-6 0-4 0-4-3-7-3l-96-96c-6-7-6-16 0-23 7-6 16-6 23 0l67 68 0-218c0-10 6-16 16-16 9 0 19 6 19 16l0 218 67-68c7-6 16-6 23 0 6 7 6 16 0 23l-96 96c0 0-4 3-7 3 0 0 0 0-3 0z"/>
    </symbol>
  
    <symbol id="icon-look" viewBox="0 0 512 512">
      <path d="m256 32c-125 0-224 99-224 224 0 16 0 29 3 42 7 28 35 48 64 48l29 0c38 0 70 32 70 70 0 32 23 64 55 64 125 0 224-99 224-224 0-125-96-224-221-224z m-141 259c-19 0-35-16-35-35 0-19 16-35 35-35 19 0 35 16 35 35 0 19-16 35-35 35z m45-93c-19 0-32-16-32-38 0-22 13-32 32-32 19 0 38 13 38 32 0 19-16 38-38 38z m214-70c20 0 36 16 36 35 0 19-16 35-36 35-19 0-35-16-35-38 0-22 16-32 35-32z m-140-13c0-19 16-35 35-35 19 0 35 16 35 35 0 19-16 35-35 35-19 0-35-16-35-35z m92 295c-19 0-35-16-35-36 0-19 16-35 35-35 20 0 36 16 36 35 0 20-16 36-36 36z m71-96c-19 0-35-16-35-36 0-19 16-35 35-35 19 0 35 16 35 35 0 20-16 36-35 36z"/>
    </symbol>
  
    <symbol id="icon-logout" viewBox="0 0 512 512">
      <path d="m288 442l-160 0c-67 0-122-55-122-122l0-128c0-67 55-122 122-122l160 0c13 0 26 10 26 26 0 16-13 26-26 26l-160 0c-38 0-74 32-74 73l0 128c0 39 32 74 74 74l160 0c13 0 26 9 26 25 0 16-13 20-26 20z m96-64c-6 0-13-4-16-7-10-9-10-25 0-35l54-54-262 0c-13 0-22-13-22-26 0-13 9-22 22-22l262 0-54-55c-10-9-10-25 0-35 10-10 26-10 35 0l96 96c3 3 3 6 7 6 0 4 3 7 3 10 0 3 0 6-3 10 0 3-4 6-7 6l-96 96c-6 6-13 10-19 10z"/>
    </symbol>
  
    <symbol id="icon-hidepass" viewBox="0 0 512 512">
      <path d="m464 48c-10-10-26-10-35 0l-64 67c-35-19-71-25-109-25-115 0-208 80-246 156l-4 10 7 10c19 41 51 80 89 108l-57 58c-10 10-10 26 0 35 6 3 9 7 16 7 6 0 13-4 16-7l83-80 304-304c10-13 10-25 0-35z m-256 221c0-3 0-10 0-13 0-26 22-48 48-48 3 0 10 0 13 0z m96-96c-13-10-32-13-48-13-54 0-96 42-96 96 0 16 3 35 13 48l-35 35c-32-19-61-51-80-83 28-48 96-122 198-122 26 0 48 4 74 13z m198 73c-16-28-35-57-57-80l-35 36c16 16 32 35 44 57-28 48-96 122-198 122-6 0-16 0-22 0l-42 35c22 6 42 10 64 10 115 0 208-80 246-157l4-13z m-246 106c54 0 96-42 96-96z"/>
    </symbol>
  
    <symbol id="icon-search" viewBox="0 0 512 512">
      <path d="m496 464l-131-131c25-35 41-77 41-122 0-112-89-201-201-201-112 0-195 86-195 198 0 112 89 202 201 202 48 0 90-16 122-42l131 131c6 3 10 7 16 7 6 0 13-4 16-7 10-13 10-25 0-35z m-288-102c-83 0-154-68-154-154 0-86 68-154 154-154 86 0 154 68 154 154 0 86-71 154-154 154z"/>
    </symbol>
  
    <symbol id="icon-edit" viewBox="0 0 512 512">
      <path d="m496 128l-112-112c-10-10-26-10-35 0l-333 336c-3 3-6 10-6 16l0 112c0 13 9 26 25 26l112 0c7 0 13-4 16-7l333-339c10-10 10-22 0-32z m-362 330l-76 0 0-77 313-314 77 77z"/>
    </symbol>
  
    <symbol id="icon-gr-collapse" viewBox="0 0 512 512">
      <path d="m269 182l121 122c10 10 4 29-12 29l-244 0c-12 0-22-16-12-29l121-122c7-3 19-3 26 0z"/>
    </symbol>
  
    <symbol id="icon-gr-expand" viewBox="0 0 512 512">
      <path d="m243 326l-118-118c-13-13-3-29 9-29l244 0c12 0 22 16 12 29l-121 122c-7 3-19 3-26-4z"/>
    </symbol>
  
    <symbol id="icon-menu" viewBox="0 0 512 512">
      <path d="m256 144c27 0 48-21 48-48 0-27-21-48-48-48-27 0-48 21-48 48 0 27 21 48 48 48z m0 160c27 0 48-21 48-48 0-27-21-48-48-48-27 0-48 21-48 48 0 27 21 48 48 48z m0 160c27 0 48-21 48-48 0-27-21-48-48-48-27 0-48 21-48 48 0 27 21 48 48 48z"/>
    </symbol>
  
</svg>
