<svg width="382" height="444" viewBox="0 0 382 444" fill="none" xmlns="http://www.w3.org/2000/svg">
<circle cx="180" cy="223" r="179" fill="#4A65AF" fill-opacity="0.1"/>
<path d="M178.5 188.5V238M178.5 238L311.5 238.5M178.5 238L62 238.5" stroke="#4A65AF" stroke-width="2" stroke-linecap="round" stroke-dasharray="10 10"/>
<circle cx="178.5" cy="237.5" r="14.5" fill="#FF2633"/>
<circle cx="62.5" cy="238.5" r="5.5" fill="#FF2633"/>
<circle cx="311.5" cy="238.5" r="5.5" fill="#FF2633"/>
<path d="M159 17H195V52C195 56.4183 191.418 60 187 60H167C162.582 60 159 56.4183 159 52V17Z" fill="#FFBF9D"/>
<path d="M215.055 67.8755H139.737C133.38 67.8755 127.911 72.3716 126.681 78.6085L116.691 129.275C115.578 134.92 118.218 140.641 123.236 143.456L142.105 154.041L161.068 146.056L194.004 145.755L212.831 153.708L231.523 143.187C236.53 140.369 239.163 134.654 238.051 129.016L228.111 78.6082C226.881 72.3715 221.412 67.8755 215.055 67.8755Z" fill="#4A65AF"/>
<path d="M169.385 59.891H185.354V69.2062C185.354 73.6159 181.779 77.1906 177.37 77.1906C172.96 77.1906 169.385 73.6158 169.385 69.2062V59.891Z" fill="#FFBF9D"/>
<path d="M154 40.7195C154 38.113 156.113 36 158.72 36H159V47C156.239 47 154 44.7614 154 42V40.7195Z" fill="#FFBF9D"/>
<path d="M195 36C197.761 36 200 38.2386 200 41V42C200 44.7614 197.761 47 195 47V36Z" fill="#FFBF9D"/>
<path d="M145.765 96.1537L141.003 122.821C140.864 123.598 141.196 124.384 141.851 124.826L154.082 133.082" stroke="black" stroke-width="0.998054"/>
<path d="M208.975 95.821L213.74 122.752C213.877 123.526 213.547 124.308 212.898 124.75L200.658 133.082" stroke="black" stroke-width="0.998054"/>
<path d="M159 26V36H157L155.586 10.5547C155.268 4.82269 159.83 0 165.571 0H187C192.523 0 197 4.47715 197 10H199.5C202.538 10 205 12.4624 205 15.5C205 18.5376 202.538 21 199.5 21H198L197 36H195V21H164C161.239 21 159 23.2386 159 26Z" fill="#313131"/>
<path d="M128.973 161.152C127.867 158.94 129.476 156.337 131.949 156.337H223.455C225.929 156.337 227.537 158.94 226.431 161.152L222.293 169.428C221.729 170.555 220.577 171.267 219.317 171.267H136.087C134.827 171.267 133.675 170.555 133.112 169.428L128.973 161.152Z" fill="#ABBFD9"/>
<path d="M226.138 165.472L222.405 172.937C221.773 174.201 220.48 175 219.067 175H136.338C134.925 175 133.632 174.201 133 172.937L129.267 165.472C128.994 164.924 128.868 164.356 128.868 163.802V160.073C128.868 160.072 128.868 160.071 128.868 160.07V160.073C128.869 160.626 128.994 161.193 129.267 161.739L133 169.204C133.632 170.469 134.925 171.267 136.338 171.267H219.067C220.48 171.267 221.773 170.469 222.405 169.204L226.138 161.739C226.411 161.193 226.536 160.626 226.537 160.073V163.802C226.537 164.356 226.411 164.924 226.138 165.472Z" fill="#8AA3C4"/>
<rect x="134.031" y="113.786" width="87.3419" height="61.214" rx="3.32685" fill="#D3DDEA"/>
<path d="M52 279H88V321C88 325.418 84.4183 329 80 329H52V279Z" fill="#FFBF9D"/>
<path d="M96.2299 336.875H24.9124C18.5555 336.875 13.0862 341.372 11.8564 347.608L1.80148 398.601C0.719765 404.087 3.18278 409.664 7.9661 412.56L25.2802 423.041L44.2432 415.056L77.179 414.755L96.0056 422.708L113.146 412.291C117.917 409.392 120.371 403.822 119.291 398.344L109.286 347.608C108.056 341.371 102.587 336.875 96.2299 336.875Z" fill="#FFBF9D"/>
<path d="M98.2299 336.875H22.9124C16.5554 336.875 11.0862 341.372 9.85637 347.608L1.30029 391L25.2801 400.5L99 399L119.843 391L111.286 347.608C110.056 341.371 104.587 336.875 98.2299 336.875Z" fill="#FF9EA4"/>
<path d="M52 329H69V337.5C69 342.194 65.1944 346 60.5 346V346C55.8056 346 52 342.194 52 337.5V329Z" fill="#FFBF9D"/>
<path d="M78.175 305V305C80.9365 305 83.175 307.239 83.175 310V311C83.175 313.761 80.9365 316 78.175 316V316V305Z" fill="#FFBF9D"/>
<path d="M28.9397 365.154L24.1778 391.821C24.039 392.598 24.3715 393.384 25.0261 393.826L37.2569 402.082" stroke="black" stroke-width="0.998054"/>
<path d="M92.1499 364.821L96.9152 391.752C97.0521 392.526 96.7223 393.308 96.0728 393.75L83.8327 402.082" stroke="black" stroke-width="0.998054"/>
<path d="M76.4853 286.515L81 282L85.0711 286.071C86.9464 287.946 88 290.49 88 293.142V321C88 325.418 84.4183 329 80 329H69V337H96.5V316.25C96.5 313.816 95.7105 311.447 94.25 309.5C92.7895 307.553 92 305.184 92 302.75V293.052C92 291.065 91.389 289.127 90.25 287.5C89.111 285.873 88.5 283.935 88.5 281.948V280.207C88.5 271.808 81.6918 265 73.2934 265H51.368C44.2612 265 38.5 270.761 38.5 277.868V280.283C38.5 283.217 36.9883 285.945 34.5 287.5C32.0117 289.055 30.5 291.783 30.5 294.717V300.75C30.5 304.503 29.4115 308.175 27.3664 311.321L27.099 311.732C25.0694 314.855 23.9044 318.46 23.7229 322.18L23 337H52C52 327.479 54.3359 318.103 58.8027 309.695L60.5 306.5L58.4497 304.45C57.5215 303.521 57 302.263 57 300.95C57 298.216 59.2161 296 61.9497 296H62C62 292.134 65.134 289 69 289H70.4853C72.7357 289 74.894 288.106 76.4853 286.515Z" fill="#313131"/>
<path d="M32 329.5L32.8956 321.738C33.2931 318.293 34.4837 314.987 36.3738 312.079L36.8664 311.321C38.9115 308.175 40 304.503 40 300.75V294.717C40 291.783 41.5117 289.055 44 287.5V287.5C46.4883 285.945 48 283.217 48 280.283V275" stroke="white" stroke-width="0.5"/>
<path d="M38 331.5L38.8956 323.738C39.2931 320.293 40.4837 316.987 42.3738 314.079L42.8664 313.321C44.9115 310.175 46 306.503 46 302.75V296.717C46 293.783 47.5117 291.055 50 289.5V289.5C52.4883 287.945 54 285.217 54 282.283V277" stroke="white" stroke-width="0.5"/>
<path d="M12.1485 430.152C11.0425 427.94 12.651 425.337 15.1242 425.337H106.63C109.104 425.337 110.712 427.94 109.606 430.152L105.468 438.428C104.904 439.555 103.752 440.267 102.492 440.267H19.2624C18.0023 440.267 16.8504 439.555 16.2868 438.428L12.1485 430.152Z" fill="#ABBFD9"/>
<path d="M109.313 434.472L105.58 441.937C104.948 443.201 103.655 444 102.242 444H19.5134C18.0996 444 16.8072 443.201 16.1749 441.937L12.4423 434.472C12.1688 433.924 12.0432 433.356 12.0435 432.802V429.073C12.0435 429.072 12.0435 429.071 12.0435 429.07V429.073C12.0437 429.626 12.1693 430.193 12.4423 430.739L16.1749 438.204C16.8072 439.469 18.0996 440.267 19.5134 440.267H102.242C103.655 440.267 104.948 439.469 105.58 438.204L109.313 430.739C109.586 430.193 109.711 429.626 109.712 429.073V432.802C109.712 433.356 109.586 433.924 109.313 434.472Z" fill="#8AA3C4"/>
<rect x="17.2063" y="382.786" width="87.3419" height="61.214" rx="3.32685" fill="#D3DDEA"/>
<path d="M69 329H62" stroke="black"/>
<path d="M329.089 279H293.089V321C293.089 325.418 296.671 329 301.089 329H329.089V279Z" fill="#FFBF9D"/>
<path d="M284 279V270.743C284 268.07 287.231 266.731 289.121 268.621L290.071 269.571C291.946 271.446 294.49 272.5 297.142 272.5H323.962C329.506 272.5 334 276.994 334 282.538V308.5C334 312.642 330.642 316 326.5 316C322.358 316 319 312.642 319 308.5V305L322.189 301.014C322.714 300.358 323 299.542 323 298.702C323 296.657 321.343 295 319.298 295H319L316.998 292.598C315.099 290.318 312.284 289 309.316 289H294C288.477 289 284 284.523 284 279Z" fill="#313131"/>
<path d="M284.859 336.875H356.177C362.534 336.875 368.003 341.372 369.233 347.608L379.288 398.601C380.37 404.087 377.907 409.664 373.123 412.56L355.809 423.041L336.846 415.056L303.91 414.755L285.084 422.708L267.943 412.291C263.172 409.392 260.718 403.822 261.798 398.344L271.803 347.608C273.033 341.371 278.503 336.875 284.859 336.875Z" fill="#FFBF9D"/>
<path d="M262 399.5L266.5 375L282 395.5L277.573 415.738C276.236 421.852 269.674 425.249 263.91 422.812L213.5 401.5L197.85 400.326C195.358 400.139 193.386 398.141 193.233 395.646L192.356 381.312C192.169 378.255 194.749 375.75 197.799 376.027L208.5 377V370.313C208.5 369.788 208.688 369.281 209.029 368.883C210.129 367.6 212.205 367.986 212.77 369.578L216.639 380.483C216.879 381.159 217.036 381.86 217.107 382.573L217.5 386.5L262 399.5Z" fill="#FFBF9D"/>
<path d="M282.859 336.875H358.177C364.534 336.875 370.003 341.372 371.233 347.608L379.789 391L355.809 400.5L282.089 399L261.247 391L269.803 347.608C271.033 341.371 276.503 336.875 282.859 336.875Z" fill="#FF2633"/>
<path d="M329.089 329H312.089V337.5C312.089 342.194 315.895 346 320.589 346V346C325.284 346 329.089 342.194 329.089 337.5V329Z" fill="#FFBF9D"/>
<path d="M302.914 305V305C300.153 305 297.914 307.239 297.914 310V311C297.914 313.761 300.153 316 302.914 316V316V305Z" fill="#FFBF9D"/>
<path d="M352.15 365.154L356.912 391.821C357.05 392.598 356.718 393.384 356.063 393.826L343.832 402.082" stroke="black" stroke-width="0.998054"/>
<path d="M312 329H319" stroke="black"/>
<path d="M288.939 364.821L284.174 391.752C284.037 392.526 284.367 393.308 285.017 393.75L297.257 402.082" stroke="black" stroke-width="0.998054"/>
<path d="M368.941 430.152C370.047 427.94 368.438 425.337 365.965 425.337H274.459C271.986 425.337 270.377 427.94 271.483 430.152L275.622 438.428C276.185 439.555 277.337 440.267 278.597 440.267H361.827C363.087 440.267 364.239 439.555 364.803 438.428L368.941 430.152Z" fill="#ABBFD9"/>
<path d="M271.777 434.472L275.509 441.937C276.141 443.201 277.434 444 278.848 444H361.576C362.99 444 364.282 443.201 364.914 441.937L368.647 434.472C368.921 433.924 369.046 433.356 369.046 432.802V429.073C369.046 429.072 369.046 429.071 369.046 429.07V429.073C369.046 429.626 368.92 430.193 368.647 430.739L364.914 438.204C364.282 439.469 362.99 440.267 361.576 440.267H278.848C277.434 440.267 276.141 439.469 275.509 438.204L271.777 430.739C271.504 430.193 271.378 429.626 271.378 429.073V432.802C271.378 433.356 271.503 433.924 271.777 434.472Z" fill="#8AA3C4"/>
<rect width="87.3419" height="61.214" rx="3.32685" transform="matrix(-1 0 0 1 363.883 382.786)" fill="#D3DDEA"/>
</svg>
