<svg width="32" height="32" viewBox="0 0 32 32" fill="none" xmlns="http://www.w3.org/2000/svg">
<path d="M18.8587 9.312C18.8587 11.7817 17.8653 14.1502 16.0969 15.8966C14.3286 17.6429 11.9302 18.624 9.42937 18.624C6.92855 18.624 4.53015 17.6429 2.7618 15.8966C0.993449 14.1502 1.14585e-09 11.7817 0 9.312C0 6.8423 0.993449 4.47376 2.7618 2.72742C4.53015 0.981083 6.92855 0 9.42937 0C11.9302 0 14.3286 0.981083 16.0969 2.72742C17.8653 4.47376 18.8587 6.8423 18.8587 9.312Z" fill="url(#paint0_linear)"/>
<path d="M31.9999 22.6848C31.9999 23.9081 31.7559 25.1194 31.2819 26.2496C30.8079 27.3798 30.1131 28.4067 29.2372 29.2717C28.3613 30.1367 27.3214 30.8228 26.177 31.2909C25.0326 31.7591 23.806 32 22.5673 32C20.0657 32 17.6665 31.0186 15.8975 29.2717C14.1286 27.5247 13.1348 25.1554 13.1348 22.6848C13.1348 20.2143 14.1286 17.8449 15.8975 16.098C17.6665 14.351 20.0657 13.3696 22.5673 13.3696C23.806 13.3696 25.0326 13.6106 26.177 14.0787C27.3214 14.5468 28.3613 15.233 29.2372 16.098C30.1131 16.963 30.8079 17.9899 31.2819 19.1201C31.7559 20.2502 31.9999 21.4615 31.9999 22.6848Z" fill="url(#paint1_linear)"/>
<path opacity="0.05" fill-rule="evenodd" clip-rule="evenodd" d="M0.034668 10.1089C0.18113 11.8683 0.827757 13.5506 1.89962 14.9608C2.97148 16.3711 4.4247 17.4515 6.09088 18.0769C7.75707 18.7024 9.56801 18.8472 11.3139 18.4946C13.0597 18.1421 14.669 17.3066 15.9553 16.085C17.2415 14.8633 18.1521 13.3056 18.5815 11.5922C19.0109 9.87881 18.9414 8.07994 18.3813 6.40405C17.8212 4.72815 16.7932 3.24382 15.4166 2.12306C14.0399 1.00229 12.3709 0.290978 10.603 0.0715332C8.20251 0.867171 6.00975 2.17995 4.1824 3.91548C2.35506 5.65101 0.938531 7.76617 0.034668 10.1089Z" fill="black"/>
<path opacity="0.05" fill-rule="evenodd" clip-rule="evenodd" d="M31.9753 22.016C31.8521 20.2352 31.2167 18.5265 30.1443 17.0921C29.0719 15.6578 27.6074 14.5578 25.9239 13.9222C24.2403 13.2867 22.4083 13.1421 20.6446 13.5058C18.8808 13.8694 17.259 14.7259 15.971 15.9741C14.6831 17.2223 13.7829 18.8098 13.3769 20.5489C12.9709 22.2881 13.0761 24.106 13.6801 25.7878C14.284 27.4695 15.3615 28.9447 16.785 30.0388C18.2085 31.1329 19.9185 31.8002 21.7127 31.9616C24.0476 31.1379 26.1743 29.822 27.9461 28.1047C29.7179 26.3875 31.0926 24.3098 31.9753 22.015V22.016Z" fill="black"/>
<path opacity="0.1" fill-rule="evenodd" clip-rule="evenodd" d="M0.475586 12.2378C0.97086 13.739 1.84231 15.0913 3.00842 16.168C4.17454 17.2448 5.59723 18.011 7.14343 18.3948C8.68963 18.7787 10.3088 18.7677 11.8496 18.363C13.3904 17.9582 14.8023 17.1729 15.9535 16.0804C17.1047 14.9879 17.9574 13.624 18.4319 12.1162C18.9064 10.6085 18.9872 9.00606 18.6668 7.45891C18.3464 5.91176 17.6352 4.47041 16.5997 3.26966C15.5642 2.06891 14.2383 1.14798 12.7459 0.593018C9.80503 1.2001 7.09541 2.61363 4.92595 4.6725C2.75648 6.73136 1.21444 9.35274 0.475586 12.2378Z" fill="black"/>
<path opacity="0.1" fill-rule="evenodd" clip-rule="evenodd" d="M31.5467 19.8271C31.0587 18.3081 30.1865 16.9381 29.0132 15.8475C27.8398 14.7569 26.4043 13.9819 24.8433 13.5963C23.2822 13.2107 21.6476 13.2273 20.0948 13.6445C18.5421 14.0617 17.1229 14.8657 15.9724 15.9799C14.8219 17.0942 13.9782 18.4816 13.5217 20.0101C13.0653 21.5387 13.0112 23.1576 13.3645 24.7127C13.7179 26.2678 14.4671 27.7075 15.5407 28.8947C16.6143 30.082 17.9766 30.9772 19.4981 31.4953C22.4013 30.8498 25.066 29.4164 27.1939 27.3557C29.3218 25.295 30.8289 22.6882 31.5467 19.8271Z" fill="black"/>
<path opacity="0.1" fill-rule="evenodd" clip-rule="evenodd" d="M0.822266 13.121C1.43579 14.4908 2.37306 15.6941 3.55488 16.6292C4.7367 17.5644 6.12835 18.2039 7.61223 18.4938C9.09611 18.7837 10.6286 18.7155 12.0802 18.2948C13.5319 17.8741 14.86 17.1134 15.9523 16.0769C17.0447 15.0404 17.8692 13.7587 18.3562 12.3399C18.8432 10.9211 18.9783 9.40703 18.7502 7.92559C18.5221 6.44414 17.9375 5.03887 17.0457 3.82851C16.1539 2.61816 14.9812 1.63828 13.6266 0.97168C10.4939 1.45483 7.58631 2.8789 5.2965 5.05157C3.0067 7.22425 1.44498 10.0409 0.822266 13.121Z" fill="black"/>
<path opacity="0.1" fill-rule="evenodd" clip-rule="evenodd" d="M31.199 18.9259C30.5886 17.5402 29.6479 16.3221 28.4576 15.3762C27.2673 14.4303 25.8631 13.7848 24.3655 13.4952C22.8679 13.2056 21.3217 13.2806 19.8598 13.7137C18.3979 14.1467 17.0639 14.925 15.9725 15.9815C14.8811 17.0381 14.0649 18.3414 13.594 19.7795C13.123 21.2175 13.0115 22.7473 13.2689 24.2375C13.5263 25.7277 14.1449 27.1338 15.0717 28.3348C15.9985 29.5358 17.2057 30.496 18.5896 31.1328C21.6948 30.61 24.5653 29.1615 26.8183 26.9805C29.0712 24.7995 30.5994 21.9897 31.199 18.9259Z" fill="black"/>
<path d="M30.9364 16.0694C30.9364 18.0062 30.5501 19.9241 29.7996 21.7135C29.049 23.5029 27.949 25.1288 26.5621 26.4983C25.1753 27.8679 23.5289 28.9543 21.717 29.6955C19.905 30.4367 17.9629 30.8182 16.0017 30.8182C14.0404 30.8182 12.0983 30.4367 10.2864 29.6955C8.4744 28.9543 6.82801 27.8679 5.44119 26.4983C4.05437 25.1288 2.95428 23.5029 2.20374 21.7135C1.45319 19.9241 1.06689 18.0062 1.06689 16.0694C1.06689 14.1325 1.45319 12.2146 2.20374 10.4252C2.95428 8.63583 4.05437 7.00993 5.44119 5.64038C6.82801 4.27083 8.4744 3.18444 10.2864 2.44324C12.0983 1.70205 14.0404 1.32056 16.0017 1.32056C17.9629 1.32056 19.905 1.70205 21.717 2.44324C23.5289 3.18444 25.1753 4.27083 26.5621 5.64038C27.949 7.00993 29.049 8.63583 29.7996 10.4252C30.5501 12.2146 30.9364 14.1325 30.9364 16.0694Z" fill="url(#paint2_linear)"/>
<path fill-rule="evenodd" clip-rule="evenodd" d="M11.802 15.5573C11.1984 15.1637 10.6948 14.6373 10.3303 14.0192C9.97847 13.3661 9.80481 12.6333 9.82652 11.8933C9.79985 10.9542 10.1233 10.0382 10.7351 9.32048C11.3709 8.59971 12.1881 8.05869 13.1035 7.75248C14.0991 7.40399 15.1481 7.22896 16.2039 7.23515C16.8947 7.22869 17.5848 7.28115 18.2666 7.39195C18.7545 7.46661 19.2338 7.58917 19.6973 7.75782C20.1229 7.90055 20.5071 8.14361 20.8169 8.46608C21.0451 8.7314 21.168 9.07004 21.1625 9.41862C21.1706 9.59971 21.1426 9.78062 21.0802 9.95101C21.0178 10.1214 20.9221 10.2779 20.7986 10.4117C20.6817 10.5349 20.5399 10.6323 20.3824 10.6974C20.2248 10.7624 20.0552 10.7938 19.8846 10.7893C19.6499 10.7874 19.4183 10.7357 19.2053 10.6378C18.6805 10.4051 18.1398 10.209 17.5873 10.0512C17.0787 9.91827 16.5544 9.85369 16.0285 9.85915C15.343 9.83416 14.6648 10.006 14.0756 10.3541C13.827 10.5038 13.6235 10.7169 13.4864 10.9711C13.3493 11.2254 13.2836 11.5114 13.2962 11.7994C13.2926 12.1775 13.4378 12.5422 13.701 12.816C14.0137 13.1376 14.3834 13.3997 14.7915 13.5893C15.2487 13.814 15.9305 14.112 16.8369 14.4832C16.9373 14.5147 17.0352 14.5535 17.1298 14.5994C18.0143 14.9461 18.8624 15.3781 19.6618 15.889C20.2931 16.2969 20.8254 16.8382 21.2206 17.4741C21.6097 18.1424 21.8045 18.9044 21.7836 19.6757C21.8163 20.62 21.5432 21.55 21.0042 22.3296C20.4554 23.0676 19.6961 23.626 18.8242 23.9328C17.7734 24.3048 16.6629 24.4841 15.5472 24.4618C14.0141 24.515 12.4883 24.2289 11.0807 23.6245C10.7208 23.4657 10.4053 23.2226 10.1613 22.9162C9.95874 22.6354 9.85371 22.297 9.86205 21.952C9.85199 21.77 9.88192 21.588 9.94975 21.4185C10.0176 21.2491 10.1217 21.0963 10.255 20.9706C10.5343 20.7282 10.897 20.6015 11.268 20.6165C11.6814 20.6221 12.0874 20.7256 12.4522 20.9184C12.9058 21.1431 13.2635 21.3116 13.5255 21.424C13.8247 21.5481 14.1345 21.6452 14.4513 21.7141C14.8419 21.799 15.241 21.8398 15.6409 21.8357C16.3481 21.8857 17.0518 21.6999 17.64 21.3077C17.8602 21.137 18.0362 20.9167 18.1534 20.6652C18.2706 20.4137 18.3256 20.1381 18.3139 19.8613C18.3146 19.4688 18.1636 19.0909 17.8919 18.8053C17.5329 18.438 17.1127 18.1349 16.6496 17.9093C16.102 17.6234 15.3319 17.275 14.3394 16.864C13.4516 16.5134 12.6016 16.0757 11.802 15.5573Z" fill="white"/>
<defs>
<linearGradient id="paint0_linear" x1="7.95882" y1="0.113067" x2="10.8475" y2="18.5192" gradientUnits="userSpaceOnUse">
<stop offset="0.012" stop-color="#00B7F0"/>
<stop offset="0.339" stop-color="#009DE5"/>
<stop offset="0.755" stop-color="#0082D9"/>
<stop offset="1" stop-color="#0078D4"/>
</linearGradient>
<linearGradient id="paint1_linear" x1="14.4029" y1="27.3547" x2="30.6552" y2="17.8854" gradientUnits="userSpaceOnUse">
<stop stop-color="#0078D4"/>
<stop offset="0.37" stop-color="#007AD5"/>
<stop offset="0.573" stop-color="#0082D9"/>
<stop offset="0.735" stop-color="#0090DF"/>
<stop offset="0.875" stop-color="#00A3E7"/>
<stop offset="1" stop-color="#00BCF2"/>
</linearGradient>
<linearGradient id="paint2_linear" x1="10.1733" y1="6.06829" x2="24.8687" y2="31.7567" gradientUnits="userSpaceOnUse">
<stop stop-color="#00B7F0"/>
<stop offset="1" stop-color="#007CC1"/>
</linearGradient>
</defs>
</svg>
