<svg width="32" height="32" viewBox="0 0 32 32" fill="none" xmlns="http://www.w3.org/2000/svg">
<path d="M6.81285 20.1805C6.81285 22.0128 5.31608 23.5095 3.48382 23.5095C1.65156 23.5095 0.154785 22.0128 0.154785 20.1805C0.154785 18.3483 1.65156 16.8516 3.48382 16.8516H6.81285V20.1805Z" fill="#E01E5A"/>
<path d="M8.49072 20.1806C8.49072 18.3483 9.98751 16.8516 11.8198 16.8516C13.6521 16.8516 15.1488 18.3483 15.1488 20.1806V28.516C15.1488 30.3482 13.6521 31.845 11.8198 31.845C9.98751 31.845 8.49072 30.3482 8.49072 28.516V20.1806Z" fill="#E01E5A"/>
<path d="M11.8198 6.81285C9.98751 6.81285 8.49072 5.31608 8.49072 3.48382C8.49072 1.65156 9.98751 0.154785 11.8198 0.154785C13.6521 0.154785 15.1488 1.65156 15.1488 3.48382V6.81285H11.8198Z" fill="#36C5F0"/>
<path d="M11.8193 8.49023C13.6516 8.49023 15.1483 9.987 15.1483 11.8192C15.1483 13.6515 13.6516 15.1482 11.8193 15.1482H3.48382C1.65156 15.1482 0.154785 13.6515 0.154785 11.8192C0.154785 9.987 1.65156 8.49023 3.48382 8.49023H11.8193Z" fill="#36C5F0"/>
<path d="M25.1875 11.8192C25.1875 9.987 26.6843 8.49023 28.5165 8.49023C30.3488 8.49023 31.8456 9.987 31.8456 11.8192C31.8456 13.6515 30.3488 15.1482 28.5165 15.1482H25.1875V11.8192Z" fill="#2EB67D"/>
<path d="M23.5098 11.8193C23.5098 13.6516 22.0129 15.1483 20.1807 15.1483C18.3484 15.1483 16.8516 13.6516 16.8516 11.8193V3.48382C16.8516 1.65156 18.3484 0.154785 20.1807 0.154785C22.0129 0.154785 23.5098 1.65156 23.5098 3.48382V11.8193Z" fill="#2EB67D"/>
<path d="M20.1807 25.187C22.0129 25.187 23.5098 26.6838 23.5098 28.516C23.5098 30.3483 22.0129 31.8451 20.1807 31.8451C18.3484 31.8451 16.8516 30.3483 16.8516 28.516V25.187H20.1807Z" fill="#ECB22E"/>
<path d="M20.1806 23.5095C18.3483 23.5095 16.8516 22.0128 16.8516 20.1805C16.8516 18.3483 18.3483 16.8516 20.1806 16.8516H28.516C30.3482 16.8516 31.845 18.3483 31.845 20.1805C31.845 22.0128 30.3482 23.5095 28.516 23.5095H20.1806Z" fill="#ECB22E"/>
</svg>
