<svg width="94" height="16" viewBox="0 0 94 16" fill="none" xmlns="http://www.w3.org/2000/svg">
<path d="M10.8252 7.59008C10.8112 9.23808 10.2585 10.7461 9.33593 11.8541C8.97817 12.2841 8.50585 12.7141 8.10387 13.0041C7.08084 13.7401 5.92114 14.1861 4.93027 14.3441C4.16049 14.4681 3.39473 14.4881 2.20488 14.4881H1.5376V1.83008H3.9394V12.0641C3.9394 12.0641 4.51222 12.1301 5.39254 11.8201C6.41557 11.4601 7.20144 10.6821 7.48483 10.2761C8.00941 9.53008 8.38324 8.92608 8.42143 7.36208V1.83008H10.8232V7.59008H10.8252Z" fill="#F36F21"/>
<path d="M21.5359 14.4861H19.1321V5.58608C19.1321 5.21208 18.9975 4.89008 18.7302 4.62208C18.4608 4.35408 18.1292 4.22008 17.7393 4.22008H16.0249C15.647 4.22008 14.6501 4.22208 14.6501 4.22208V5.58608V14.4861H12.2483V5.58608V1.83008H16.0249H17.7393C18.7905 1.83008 19.6848 2.19808 20.4265 2.93408C21.1661 3.67008 21.5359 4.55608 21.5359 5.58608V14.4861Z" fill="#F36F21"/>
<path d="M32.2464 10.7301C32.2464 11.7621 31.8766 12.6461 31.135 13.3821C30.3933 14.1181 29.4989 14.4861 28.4498 14.4861H26.7333C25.6962 14.4861 24.8079 14.1181 24.0682 13.3821C23.3286 12.6461 22.9568 11.7621 22.9568 10.7301V5.58808C22.9568 4.55408 23.3266 3.67008 24.0682 2.93408C24.8079 2.19808 25.6962 1.83008 26.7333 1.83008H30.8154V4.22208H26.7333C26.3555 4.22208 26.0339 4.35608 25.7646 4.62208C25.4953 4.88808 25.3606 5.21208 25.3606 5.58808V10.7301C25.3606 11.1061 25.4953 11.4261 25.7646 11.6941C26.0339 11.9621 26.3575 12.0961 26.7333 12.0961H28.4498C28.8397 12.0961 29.1693 11.9621 29.4407 11.6941C29.71 11.4261 29.8446 11.1061 29.8446 10.7301V9.36408H26.7916V6.97408H32.2484V10.7301H32.2464Z" fill="#F36F21"/>
<path d="M62.1274 12.3721C59.611 12.4981 57.5449 10.4421 57.6715 7.94012C57.78 5.79612 59.5306 4.05412 61.6852 3.94612C64.2016 3.82012 66.2677 5.87612 66.1411 8.37812C66.0306 10.5221 64.28 12.2641 62.1274 12.3721ZM62.1133 1.83212C58.4352 1.71612 55.4305 4.70612 55.549 8.36412C55.6556 11.6781 58.3669 14.3761 61.6973 14.4821C65.3733 14.5981 68.3801 11.6081 68.2615 7.95012C68.157 4.63812 65.4437 1.93812 62.1133 1.83212Z" fill="white"/>
<path d="M43.4435 12.0561C42.8787 12.2901 42.2536 12.4041 41.5964 12.3721C39.4217 12.2621 37.6631 10.4881 37.5807 8.32213C37.4882 5.91613 39.4217 3.93813 41.8175 3.93813C42.3983 3.93813 42.953 4.05412 43.4575 4.26612C44.4343 4.67412 45.5659 4.42812 46.3136 3.68212C45.1177 2.49212 43.4475 1.77412 41.6084 1.83212C38.2359 1.93812 35.5085 4.70413 35.4582 8.06213C35.406 11.6021 38.272 14.4861 41.8175 14.4861C43.5741 14.4861 45.1639 13.7781 46.3156 12.6321L46.2693 12.5861C45.5257 11.8481 44.4122 11.6561 43.4435 12.0561Z" fill="white"/>
<path d="M50.0843 11.1981V3.94008C50.0843 2.77608 49.1356 1.83008 47.9639 1.83008V11.3201C47.9639 13.0701 49.3889 14.4881 51.1475 14.4881H56.4435C56.4435 13.3241 55.4949 12.3781 54.3231 12.3781H51.2681C50.6149 12.3781 50.0843 11.8501 50.0843 11.1981Z" fill="white"/>
<path d="M78.1923 3.94191V9.21191C78.1923 10.9599 76.7693 12.3759 75.0127 12.3759C73.2561 12.3759 71.8331 10.9599 71.8331 9.21391V3.94191C71.8331 2.77791 70.8844 1.83191 69.7126 1.83191V9.21191C69.7126 12.1239 72.0863 14.4859 75.0127 14.4859C77.9391 14.4859 80.3128 12.1239 80.3128 9.21191V1.83391C79.141 1.83391 78.1923 2.77791 78.1923 3.94191Z" fill="white"/>
<path d="M92.6895 7.86808C92.5368 4.47208 89.6606 1.83008 86.2438 1.83008H82.0955V12.3781C83.2672 12.3781 84.2159 11.4341 84.2159 10.2681V3.94008H86.3443C88.6818 3.94408 90.5771 5.83208 90.5771 8.16008C90.5771 10.4901 88.6778 12.3781 86.3363 12.3781H85.8137C84.644 12.3781 83.6933 13.3221 83.6933 14.4881H86.3363C89.944 14.4861 92.8503 11.4961 92.6895 7.86808Z" fill="white"/>
</svg>
