<svg width="42" height="42" viewBox="0 0 42 42" fill="none" xmlns="http://www.w3.org/2000/svg">
<path d="M25.2 34.65C25.2 36.9696 23.3196 38.85 21 38.85C18.6805 38.85 16.8 36.9696 16.8 34.65" stroke="#FF2633" stroke-width="3.15"/>
<path d="M18.8999 3.30003C20.283 2.99537 21.7168 2.99537 23.0999 3.30003" stroke="#FF2633" stroke-width="3.15" stroke-linecap="round"/>
<path d="M14.7 5.37634C12.7755 7.00262 11.5255 9.33763 11.282 11.9144L10.0103 25.3714C9.89575 26.5834 9.20968 27.6679 8.16362 28.2905L6.9541 29.0105C6.54854 29.2519 6.30005 29.689 6.30005 30.161C6.30005 30.9004 6.89947 31.4998 7.6389 31.4998H34.3612C35.1006 31.4998 35.7 30.9004 35.7 30.161C35.7 29.689 35.4516 29.2519 35.046 29.0105L33.8365 28.2905C32.7904 27.6679 32.1043 26.5834 31.9898 25.3714L30.7181 11.9144C30.4746 9.33763 29.2246 7.00262 27.3 5.37634" stroke="#4A65AF" stroke-width="3.15" stroke-linecap="round"/>
<path d="M16.881 20.4741L18.7631 8.24032C18.8419 7.72809 19.2817 7.34998 19.7999 7.34998H22.1993C22.7176 7.34998 23.1582 7.72809 23.237 8.24031L25.1191 20.4741C25.17 20.8047 25.0603 21.1397 24.8238 21.3762L21.7425 24.4575C21.3325 24.8676 20.6676 24.8676 20.2576 24.4575L17.1763 21.3762C16.9398 21.1397 16.8301 20.8047 16.881 20.4741Z" fill="#FF2633"/>
</svg>
